<svg width="52" height="49" viewBox="0 0 52 49" fill="none" xmlns="http://www.w3.org/2000/svg">
<path d="M43.625 47.7003C44.0689 47.7471 44.4045 47.5454 44.585 47.2384C44.7682 46.9264 44.8065 46.4734 44.5508 46.0108C43.6843 44.4431 42.7166 42.9213 41.7168 41.4171C41.2934 40.78 40.84 40.1596 40.377 39.5333C39.916 38.9098 39.4432 38.2781 38.9922 37.6319C38.7522 37.2878 38.5435 36.9263 38.3467 36.586C38.1964 36.3262 38.0528 36.0781 37.9014 35.8419L37.7461 35.6095C36.7418 34.1636 35.53 32.8871 34.2861 31.5782C33.0508 30.2783 31.7831 28.9456 30.7266 27.4229V27.422C30.5097 27.1085 30.2415 26.8183 29.9424 26.5177C29.6552 26.2291 29.3153 25.9081 29.0156 25.586C28.8177 25.3743 28.6236 25.1189 28.4727 24.9376L28.2432 24.6632L28.4297 24.3575C28.4521 24.3207 28.4747 24.284 28.4971 24.2472C28.5196 24.2102 28.542 24.1728 28.5645 24.1358L28.7637 23.8077L29.1328 23.9161C30.4416 24.3018 31.7555 24.686 33.0654 25.0763L33.0645 25.0772C33.2887 25.1439 33.5162 25.224 33.7139 25.2911C33.9194 25.3609 34.1072 25.4208 34.293 25.461H34.2939C36.8131 26.0091 39.4857 26.4112 42.0176 27.1563C44.4853 27.8827 46.9353 27.6606 49.5508 27.5772C50.2452 27.5544 50.6543 27.1105 50.6836 26.5352L50.6846 26.5343C50.7136 25.9799 50.3622 25.5017 49.6406 25.3897C48.9233 25.2783 48.2019 25.2052 47.4932 25.2052C46.2337 25.2051 45.0665 24.9402 43.915 24.4854H43.9141C43.5909 24.3574 43.2361 24.2781 42.8447 24.2091C42.4723 24.1434 42.0283 24.0813 41.6221 23.9942H41.6211C41.1554 23.8937 40.6721 23.7949 40.1904 23.6778L39.71 23.5538C38.4785 23.2161 37.246 22.8465 36.0303 22.4991C35.492 22.3452 34.7986 22.2023 34.1992 21.9815C33.3623 21.6734 32.525 21.3531 31.6963 21.0089L30.8711 20.6563C29.4772 20.0427 27.8645 19.4828 26.5156 18.586C24.2744 17.0953 22.17 15.3865 20.0684 13.7628C19.4944 13.3198 19.0089 12.7618 18.5693 12.2735C18.4278 12.1165 18.3354 11.9391 18.2617 11.7862C18.1792 11.6149 18.1243 11.4842 18.0312 11.3067L17.6416 10.5636L18.4805 10.5743C19.0959 10.5822 19.6428 10.5412 20.2471 10.5284C20.8262 10.5162 21.42 10.5333 21.998 10.6778C23.9432 11.1636 25.9915 11.6975 27.8291 12.6251C30.9709 14.2111 33.9793 16.1014 36.9961 17.837C37.3933 18.0653 37.7561 18.1311 38.0469 18.089C38.33 18.0478 38.5798 17.9005 38.7686 17.631L38.7695 17.63C38.944 17.3811 38.996 17.1181 38.9463 16.8595C38.9015 16.6273 38.7678 16.3684 38.5117 16.1153L38.3945 16.0069C37.1102 14.9041 35.8104 13.82 34.499 12.7481C32.8203 11.3761 31.1617 10.002 29.4512 8.6954V8.69443C27.9737 7.56483 26.4929 6.45723 24.9375 5.49228C23.0567 4.32436 21.0987 3.26505 19.1191 2.23935C18.5195 1.92902 17.8631 1.70824 17.1758 1.50302L16.4795 1.2999C16.0735 1.18366 15.6528 1.10674 15.2012 1.02158C14.7585 0.938098 14.2878 0.84665 13.8271 0.70224C12.7222 0.355915 11.7694 0.435572 10.8779 1.07626C9.64524 1.96193 8.76355 2.90292 8.68945 4.26962L8.64355 5.11435L7.92578 4.66708C6.75062 3.93543 5.49972 3.23461 4.3584 2.42001L4.35742 2.41904C3.5496 1.84188 2.68305 1.60581 1.69922 1.59384L1.53027 1.59872C1.15324 1.62833 0.88532 1.77453 0.723633 1.96298C0.542188 2.17457 0.440539 2.50227 0.537109 2.94931C1.09815 5.54034 1.67211 7.99328 3.35938 9.96689L3.36035 9.96591C3.55008 10.1873 3.74169 10.4793 3.7207 10.8419C3.69987 11.2008 3.47856 11.4755 3.25488 11.6886V11.6895L2.99902 11.9474C2.44058 12.5458 2.15492 13.1193 2.07812 13.6944C1.99008 14.3548 2.16603 15.099 2.66992 15.9903V15.9913C2.91779 16.4311 3.13108 16.9249 3.3291 17.3302L3.32812 17.3311C3.48259 17.6458 3.63314 18.0052 3.76465 18.2931C3.86988 18.5233 3.97478 18.7352 4.09277 18.9268L4.21582 19.1124C5.43129 20.8091 6.70928 22.4534 7.97559 24.1368L7.97656 24.1378C8.53693 24.8842 9.00002 25.4332 9.7666 25.589H9.77051C9.94662 25.626 10.0784 25.7202 10.1533 25.7794C10.2076 25.8223 10.3228 25.9254 10.3291 25.9308L10.3301 25.9327C10.9751 26.4835 11.5268 27.0111 12.1562 27.4952C15.0133 29.6935 17.8792 31.8818 20.7559 34.0548C21.2409 34.4211 21.7542 34.7422 22.2939 35.1026C22.8226 35.4557 23.3637 35.8387 23.8447 36.2999C25.3839 37.7744 27.2412 38.7109 29.1543 39.7852C29.7377 40.1128 30.3512 39.9284 30.6689 39.4561L30.6699 39.4552C30.9519 39.0359 30.9249 38.486 30.4521 38.0294L30.3516 37.9386C30.0496 37.687 29.7234 37.4574 29.3779 37.2179C29.1229 37.0411 28.8554 36.858 28.5928 36.6622L28.332 36.462C25.9499 34.5729 23.3034 32.7608 21.3652 30.1739C21.0137 29.7058 20.6394 29.2832 20.2236 29.0313C19.6296 28.6712 19.1875 28.2102 18.8125 27.7345C18.4611 27.2886 18.1031 26.7367 17.7939 26.3175C16.3773 24.397 14.8564 22.5908 13.3672 20.6808C13.0217 20.2386 12.7368 19.69 12.4883 19.2911L12.0977 18.6642L12.8242 18.5343C14.0758 18.3111 14.7727 19.0152 15.3057 19.4601H15.3066C16.2593 20.2577 17.2443 20.9835 18.2441 21.7716C18.912 22.2981 19.5931 22.8293 20.2539 23.3858C20.6205 23.6945 20.9762 24.049 21.2998 24.3497C21.5513 24.5833 21.795 24.7962 22.0469 24.9786L22.3027 25.1505C23.4231 25.8449 24.4446 26.6543 25.2393 27.7735C25.366 27.952 25.4869 28.1038 25.6104 28.2188L25.7344 28.3204C27.6148 29.651 29.1788 31.3004 30.6973 32.9317C31.4426 33.7327 32.2151 34.5096 32.9922 35.2989C33.767 36.0859 34.5455 36.8839 35.29 37.7149C36.5724 39.148 37.7471 40.6785 38.9092 42.1817C40.0341 43.6384 41.0311 45.0628 42.124 46.4776L42.5986 47.0831C42.7126 47.2263 42.8854 47.3763 43.083 47.4952C43.2829 47.6155 43.4761 47.6846 43.625 47.7003Z" fill="#75A0B3"/>
<path d="M43.625 47.7003C44.0689 47.7471 44.4045 47.5454 44.585 47.2384C44.7682 46.9264 44.8065 46.4734 44.5508 46.0108C43.6843 44.4431 42.7166 42.9213 41.7168 41.4171C41.2934 40.78 40.84 40.1596 40.377 39.5333C39.916 38.9098 39.4432 38.2781 38.9922 37.6319C38.7522 37.2878 38.5435 36.9263 38.3467 36.586C38.1964 36.3262 38.0528 36.0781 37.9014 35.8419L37.7461 35.6095C36.7418 34.1636 35.53 32.8871 34.2861 31.5782C33.0508 30.2783 31.7831 28.9456 30.7266 27.4229V27.422C30.5097 27.1085 30.2415 26.8183 29.9424 26.5177C29.6552 26.2291 29.3153 25.9081 29.0156 25.586C28.8177 25.3743 28.6236 25.1189 28.4727 24.9376L28.2432 24.6632L28.4297 24.3575C28.4521 24.3207 28.4747 24.284 28.4971 24.2472C28.5196 24.2102 28.542 24.1728 28.5645 24.1358L28.7637 23.8077L29.1328 23.9161C30.4416 24.3018 31.7555 24.686 33.0654 25.0763L33.0645 25.0772C33.2887 25.1439 33.5162 25.224 33.7139 25.2911C33.9194 25.3609 34.1072 25.4208 34.293 25.461H34.2939C36.8131 26.0091 39.4857 26.4112 42.0176 27.1563C44.4853 27.8827 46.9353 27.6606 49.5508 27.5772C50.2452 27.5544 50.6543 27.1105 50.6836 26.5352L50.6846 26.5343C50.7136 25.9799 50.3622 25.5017 49.6406 25.3897C48.9233 25.2783 48.2019 25.2052 47.4932 25.2052C46.2337 25.2051 45.0665 24.9402 43.915 24.4854H43.9141C43.5909 24.3574 43.2361 24.2781 42.8447 24.2091C42.4723 24.1434 42.0283 24.0813 41.6221 23.9942H41.6211C41.1554 23.8937 40.6721 23.7949 40.1904 23.6778L39.71 23.5538C38.4785 23.2161 37.246 22.8465 36.0303 22.4991C35.492 22.3452 34.7986 22.2023 34.1992 21.9815C33.3623 21.6734 32.525 21.3531 31.6963 21.0089L30.8711 20.6563C29.4772 20.0427 27.8645 19.4828 26.5156 18.586C24.2744 17.0953 22.17 15.3865 20.0684 13.7628C19.4944 13.3198 19.0089 12.7618 18.5693 12.2735C18.4278 12.1165 18.3354 11.9391 18.2617 11.7862C18.1792 11.6149 18.1243 11.4842 18.0312 11.3067L17.6416 10.5636L18.4805 10.5743C19.0959 10.5822 19.6428 10.5412 20.2471 10.5284C20.8262 10.5162 21.42 10.5333 21.998 10.6778C23.9432 11.1636 25.9915 11.6975 27.8291 12.6251C30.9709 14.2111 33.9793 16.1014 36.9961 17.837C37.3933 18.0653 37.7561 18.1311 38.0469 18.089C38.33 18.0478 38.5798 17.9005 38.7686 17.631L38.7695 17.63C38.944 17.3811 38.996 17.1181 38.9463 16.8595C38.9015 16.6273 38.7678 16.3684 38.5117 16.1153L38.3945 16.0069C37.1102 14.9041 35.8104 13.82 34.499 12.7481C32.8203 11.3761 31.1617 10.002 29.4512 8.6954V8.69443C27.9737 7.56483 26.4929 6.45723 24.9375 5.49228C23.0567 4.32436 21.0987 3.26505 19.1191 2.23935C18.5195 1.92902 17.8631 1.70824 17.1758 1.50302L16.4795 1.2999C16.0735 1.18366 15.6528 1.10674 15.2012 1.02158C14.7585 0.938098 14.2878 0.84665 13.8271 0.70224C12.7222 0.355915 11.7694 0.435572 10.8779 1.07626C9.64524 1.96193 8.76355 2.90292 8.68945 4.26962L8.64355 5.11435L7.92578 4.66708C6.75062 3.93543 5.49972 3.23461 4.3584 2.42001L4.35742 2.41904C3.5496 1.84188 2.68305 1.60581 1.69922 1.59384L1.53027 1.59872C1.15324 1.62833 0.88532 1.77453 0.723633 1.96298C0.542188 2.17457 0.440539 2.50227 0.537109 2.94931C1.09815 5.54034 1.67211 7.99328 3.35938 9.96689L3.36035 9.96591C3.55008 10.1873 3.74169 10.4793 3.7207 10.8419C3.69987 11.2008 3.47856 11.4755 3.25488 11.6886V11.6895L2.99902 11.9474C2.44058 12.5458 2.15492 13.1193 2.07812 13.6944C1.99008 14.3548 2.16603 15.099 2.66992 15.9903V15.9913C2.91779 16.4311 3.13108 16.9249 3.3291 17.3302L3.32812 17.3311C3.48259 17.6458 3.63314 18.0052 3.76465 18.2931C3.86988 18.5233 3.97478 18.7352 4.09277 18.9268L4.21582 19.1124C5.43129 20.8091 6.70928 22.4534 7.97559 24.1368L7.97656 24.1378C8.53693 24.8842 9.00002 25.4332 9.7666 25.589H9.77051C9.94662 25.626 10.0784 25.7202 10.1533 25.7794C10.2076 25.8223 10.3228 25.9254 10.3291 25.9308L10.3301 25.9327C10.9751 26.4835 11.5268 27.0111 12.1562 27.4952C15.0133 29.6935 17.8792 31.8818 20.7559 34.0548C21.2409 34.4211 21.7542 34.7422 22.2939 35.1026C22.8226 35.4557 23.3637 35.8387 23.8447 36.2999C25.3839 37.7744 27.2412 38.7109 29.1543 39.7852C29.7377 40.1128 30.3512 39.9284 30.6689 39.4561L30.6699 39.4552C30.9519 39.0359 30.9249 38.486 30.4521 38.0294L30.3516 37.9386C30.0496 37.687 29.7234 37.4574 29.3779 37.2179C29.1229 37.0411 28.8554 36.858 28.5928 36.6622L28.332 36.462C25.9499 34.5729 23.3034 32.7608 21.3652 30.1739C21.0137 29.7058 20.6394 29.2832 20.2236 29.0313C19.6296 28.6712 19.1875 28.2102 18.8125 27.7345C18.4611 27.2886 18.1031 26.7367 17.7939 26.3175C16.3773 24.397 14.8564 22.5908 13.3672 20.6808C13.0217 20.2386 12.7368 19.69 12.4883 19.2911L12.0977 18.6642L12.8242 18.5343C14.0758 18.3111 14.7727 19.0152 15.3057 19.4601H15.3066C16.2593 20.2577 17.2443 20.9835 18.2441 21.7716C18.912 22.2981 19.5931 22.8293 20.2539 23.3858C20.6205 23.6945 20.9762 24.049 21.2998 24.3497C21.5513 24.5833 21.795 24.7962 22.0469 24.9786L22.3027 25.1505C23.4231 25.8449 24.4446 26.6543 25.2393 27.7735C25.366 27.952 25.4869 28.1038 25.6104 28.2188L25.7344 28.3204C27.6148 29.651 29.1788 31.3004 30.6973 32.9317C31.4426 33.7327 32.2151 34.5096 32.9922 35.2989C33.767 36.0859 34.5455 36.8839 35.29 37.7149C36.5724 39.148 37.7471 40.6785 38.9092 42.1817C40.0341 43.6384 41.0311 45.0628 42.124 46.4776L42.5986 47.0831C42.7126 47.2263 42.8854 47.3763 43.083 47.4952C43.2829 47.6155 43.4761 47.6846 43.625 47.7003Z" stroke="black"/>
<path d="M43.625 47.7003C44.0689 47.7471 44.4045 47.5454 44.585 47.2384C44.7682 46.9264 44.8065 46.4734 44.5508 46.0108C43.6843 44.4431 42.7166 42.9213 41.7168 41.4171C41.2934 40.78 40.84 40.1596 40.377 39.5333C39.916 38.9098 39.4432 38.2781 38.9922 37.6319C38.7522 37.2878 38.5435 36.9263 38.3467 36.586C38.1964 36.3262 38.0528 36.0781 37.9014 35.8419L37.7461 35.6095C36.7418 34.1636 35.53 32.8871 34.2861 31.5782C33.0508 30.2783 31.7831 28.9456 30.7266 27.4229V27.422C30.5097 27.1085 30.2415 26.8183 29.9424 26.5177C29.6552 26.2291 29.3153 25.9081 29.0156 25.586C28.8177 25.3743 28.6236 25.1189 28.4727 24.9376L28.2432 24.6632L28.4297 24.3575C28.4521 24.3207 28.4747 24.284 28.4971 24.2472C28.5196 24.2102 28.542 24.1728 28.5645 24.1358L28.7637 23.8077L29.1328 23.9161C30.4416 24.3018 31.7555 24.686 33.0654 25.0763L33.0645 25.0772C33.2887 25.1439 33.5162 25.224 33.7139 25.2911C33.9194 25.3609 34.1072 25.4208 34.293 25.461H34.2939C36.8131 26.0091 39.4857 26.4112 42.0176 27.1563C44.4853 27.8827 46.9353 27.6606 49.5508 27.5772C50.2452 27.5544 50.6543 27.1105 50.6836 26.5352L50.6846 26.5343C50.7136 25.9799 50.3622 25.5017 49.6406 25.3897C48.9233 25.2783 48.2019 25.2052 47.4932 25.2052C46.2337 25.2051 45.0665 24.9402 43.915 24.4854H43.9141C43.5909 24.3574 43.2361 24.2781 42.8447 24.2091C42.4723 24.1434 42.0283 24.0813 41.6221 23.9942H41.6211C41.1554 23.8937 40.6721 23.7949 40.1904 23.6778L39.71 23.5538C38.4785 23.2161 37.246 22.8465 36.0303 22.4991C35.492 22.3452 34.7986 22.2023 34.1992 21.9815C33.3623 21.6734 32.525 21.3531 31.6963 21.0089L30.8711 20.6563C29.4772 20.0427 27.8645 19.4828 26.5156 18.586C24.2744 17.0953 22.17 15.3865 20.0684 13.7628C19.4944 13.3198 19.0089 12.7618 18.5693 12.2735C18.4278 12.1165 18.3354 11.9391 18.2617 11.7862C18.1792 11.6149 18.1243 11.4842 18.0312 11.3067L17.6416 10.5636L18.4805 10.5743C19.0959 10.5822 19.6428 10.5412 20.2471 10.5284C20.8262 10.5162 21.42 10.5333 21.998 10.6778C23.9432 11.1636 25.9915 11.6975 27.8291 12.6251C30.9709 14.2111 33.9793 16.1014 36.9961 17.837C37.3933 18.0653 37.7561 18.1311 38.0469 18.089C38.33 18.0478 38.5798 17.9005 38.7686 17.631L38.7695 17.63C38.944 17.3811 38.996 17.1181 38.9463 16.8595C38.9015 16.6273 38.7678 16.3684 38.5117 16.1153L38.3945 16.0069C37.1102 14.9041 35.8104 13.82 34.499 12.7481C32.8203 11.3761 31.1617 10.002 29.4512 8.6954V8.69443C27.9737 7.56483 26.4929 6.45723 24.9375 5.49228C23.0567 4.32436 21.0987 3.26505 19.1191 2.23935C18.5195 1.92902 17.8631 1.70824 17.1758 1.50302L16.4795 1.2999C16.0735 1.18366 15.6528 1.10674 15.2012 1.02158C14.7585 0.938098 14.2878 0.84665 13.8271 0.70224C12.7222 0.355915 11.7694 0.435572 10.8779 1.07626C9.64524 1.96193 8.76355 2.90292 8.68945 4.26962L8.64355 5.11435L7.92578 4.66708C6.75062 3.93543 5.49972 3.23461 4.3584 2.42001L4.35742 2.41904C3.5496 1.84188 2.68305 1.60581 1.69922 1.59384L1.53027 1.59872C1.15324 1.62833 0.88532 1.77453 0.723633 1.96298C0.542188 2.17457 0.440539 2.50227 0.537109 2.94931C1.09815 5.54034 1.67211 7.99328 3.35938 9.96689L3.36035 9.96591C3.55008 10.1873 3.74169 10.4793 3.7207 10.8419C3.69987 11.2008 3.47856 11.4755 3.25488 11.6886V11.6895L2.99902 11.9474C2.44058 12.5458 2.15492 13.1193 2.07812 13.6944C1.99008 14.3548 2.16603 15.099 2.66992 15.9903V15.9913C2.91779 16.4311 3.13108 16.9249 3.3291 17.3302L3.32812 17.3311C3.48259 17.6458 3.63314 18.0052 3.76465 18.2931C3.86988 18.5233 3.97478 18.7352 4.09277 18.9268L4.21582 19.1124C5.43129 20.8091 6.70928 22.4534 7.97559 24.1368L7.97656 24.1378C8.53693 24.8842 9.00002 25.4332 9.7666 25.589H9.77051C9.94662 25.626 10.0784 25.7202 10.1533 25.7794C10.2076 25.8223 10.3228 25.9254 10.3291 25.9308L10.3301 25.9327C10.9751 26.4835 11.5268 27.0111 12.1562 27.4952C15.0133 29.6935 17.8792 31.8818 20.7559 34.0548C21.2409 34.4211 21.7542 34.7422 22.2939 35.1026C22.8226 35.4557 23.3637 35.8387 23.8447 36.2999C25.3839 37.7744 27.2412 38.7109 29.1543 39.7852C29.7377 40.1128 30.3512 39.9284 30.6689 39.4561L30.6699 39.4552C30.9519 39.0359 30.9249 38.486 30.4521 38.0294L30.3516 37.9386C30.0496 37.687 29.7234 37.4574 29.3779 37.2179C29.1229 37.0411 28.8554 36.858 28.5928 36.6622L28.332 36.462C25.9499 34.5729 23.3034 32.7608 21.3652 30.1739C21.0137 29.7058 20.6394 29.2832 20.2236 29.0313C19.6296 28.6712 19.1875 28.2102 18.8125 27.7345C18.4611 27.2886 18.1031 26.7367 17.7939 26.3175C16.3773 24.397 14.8564 22.5908 13.3672 20.6808C13.0217 20.2386 12.7368 19.69 12.4883 19.2911L12.0977 18.6642L12.8242 18.5343C14.0758 18.3111 14.7727 19.0152 15.3057 19.4601H15.3066C16.2593 20.2577 17.2443 20.9835 18.2441 21.7716C18.912 22.2981 19.5931 22.8293 20.2539 23.3858C20.6205 23.6945 20.9762 24.049 21.2998 24.3497C21.5513 24.5833 21.795 24.7962 22.0469 24.9786L22.3027 25.1505C23.4231 25.8449 24.4446 26.6543 25.2393 27.7735C25.366 27.952 25.4869 28.1038 25.6104 28.2188L25.7344 28.3204C27.6148 29.651 29.1788 31.3004 30.6973 32.9317C31.4426 33.7327 32.2151 34.5096 32.9922 35.2989C33.767 36.0859 34.5455 36.8839 35.29 37.7149C36.5724 39.148 37.7471 40.6785 38.9092 42.1817C40.0341 43.6384 41.0311 45.0628 42.124 46.4776L42.5986 47.0831C42.7126 47.2263 42.8854 47.3763 43.083 47.4952C43.2829 47.6155 43.4761 47.6846 43.625 47.7003Z" stroke="black" stroke-opacity="0.2"/>
</svg>
