<svg width="79" height="107" viewBox="0 0 79 107" fill="none" xmlns="http://www.w3.org/2000/svg">
<path d="M41.0348 56.415C42.6388 56.9 44.0748 57.299 45.4888 57.768C49.0428 58.945 51.2028 62.624 50.5588 66.319C50.1668 68.569 49.2268 70.614 47.5648 72.116C44.8528 74.566 42.0278 76.913 39.0728 79.058C38.0508 79.8 36.5038 80.074 35.1888 80.097C33.3168 80.131 31.7128 80.669 30.0058 81.367C27.7978 82.268 26.5778 83.683 25.5718 85.816C24.1298 88.872 22.1728 91.637 19.7638 94.135C17.4858 96.497 15.6288 99.288 13.7508 102.004C12.4588 103.873 11.0518 105.495 8.87183 106.296C8.54083 106.418 8.19983 106.52 7.85583 106.596C4.66083 107.3 -0.511167 103.072 0.0408328 99.972C0.338833 98.298 1.12283 96.517 2.20783 95.219C4.19883 92.839 5.11283 89.991 6.36983 87.287C7.57883 84.686 8.49083 81.931 9.87583 79.433C10.9038 77.577 12.4778 76.023 13.9618 74.141C13.9748 74.377 14.0058 74.257 13.9608 74.212C11.5528 71.8 11.4578 69.066 12.5948 66.014C13.1268 64.584 13.2678 63.002 13.5358 61.481C14.4028 56.572 16.4048 52.199 19.7928 48.53C22.4528 45.65 26.3598 45.116 29.0938 47.279C29.9588 47.963 30.5778 49 31.1828 49.956C31.7178 50.802 32.0768 51.76 32.5138 52.669C32.7468 52.619 32.9218 52.636 32.9848 52.56C36.2488 48.644 40.1328 45.289 42.6158 40.664C45.0118 36.202 48.0148 32.068 50.6938 27.753C51.4288 26.568 52.0128 25.277 52.5358 23.982C52.6558 23.685 52.3568 23.006 52.0478 22.786C50.4228 21.63 49.9958 20.403 50.7278 18.559C51.6448 16.248 52.5678 13.939 53.6128 11.317C51.7658 10.123 49.6978 8.62298 47.4778 7.40098C45.5768 6.35498 44.6798 5.12798 45.1748 3.48798C45.6808 1.81097 47.2568 1.04597 49.3478 1.36198C51.1488 1.63498 52.6948 2.25497 53.9988 3.63097C54.7978 4.47398 55.9448 4.98298 56.9208 5.66298C57.5018 6.06698 57.8808 5.88998 58.2108 5.32998C58.7928 4.33998 59.3708 3.34498 59.9998 2.38498C61.7108 -0.223022 65.4478 -0.763023 67.9148 1.11697C71.1908 3.61298 71.6388 5.95097 70.6708 10.021C70.3578 11.341 69.7328 12.59 69.2088 13.855C68.9228 14.544 68.9988 14.939 69.7418 15.314C72.1858 16.548 74.5878 17.867 77.0018 19.16C78.5918 20.01 79.2118 21.558 78.5678 23.035C77.9238 24.514 76.3398 25.235 74.6748 24.512C72.7778 23.688 70.9958 22.6 69.1628 21.629C68.7728 21.422 68.3618 21.249 67.9878 21.016C67.1518 20.494 66.6368 20.557 66.1698 21.575C65.1078 23.892 63.2198 25.099 60.6718 25.379C60.2408 25.426 59.7228 25.926 59.4908 26.351C57.0768 30.765 54.8948 35.317 52.2848 39.609C49.5348 44.134 46.3858 48.416 43.4178 52.808C42.6328 53.97 41.8708 55.148 41.0348 56.415Z" fill="#3A3434"/>
</svg>
