<svg width="51" height="60" viewBox="0 0 51 60" fill="none" xmlns="http://www.w3.org/2000/svg">
<path d="M20.8421 2.28882e-05C26.9401 0.286023 31.8411 1.39302 36.3991 3.82502C36.4801 3.86802 36.5571 3.92702 36.6431 3.94802C41.2021 5.06402 43.9971 8.30402 46.3901 12.03C46.5871 12.337 46.8131 12.626 47.0091 12.934C51.8681 20.585 51.7881 32.744 46.2481 39.929C42.9861 44.158 40.1491 48.871 35.6401 52.034C33.1801 53.759 30.7601 55.598 28.1141 56.989C24.6731 58.798 20.9641 59.597 16.9841 58.884C14.2511 58.395 11.4441 58.338 8.69011 57.947C6.00211 57.566 3.61611 56.459 1.73911 54.423C0.0341079 52.573 -0.485892 50.434 0.486108 48.095C1.46411 45.744 3.40511 44.887 5.87511 44.88C7.97211 44.875 10.0761 44.791 12.1641 44.604C15.7681 44.28 18.2891 41.981 20.7751 39.665C25.9171 34.877 26.8281 28.906 25.6761 22.324C25.3861 20.668 24.5811 19.485 23.1991 18.579C21.8271 17.679 20.4341 16.779 19.1991 15.707C17.4071 14.153 15.3181 13.56 13.0451 13.364C12.5911 13.325 12.1331 13.314 11.6801 13.261C8.73411 12.92 6.86011 11.306 6.50711 8.81902C6.15811 6.36002 7.71811 3.78602 10.2811 2.76302C11.8481 2.13802 13.4401 1.53402 15.0741 1.13202C17.2781 0.589023 19.5331 0.250023 20.8421 2.28882e-05Z" fill="#EFECDF"/>
</svg>
