<svg width="80" height="92" viewBox="0 0 80 92" fill="none" xmlns="http://www.w3.org/2000/svg">
<path d="M67.8836 33.5085C69.6766 33.5395 71.3016 33.6935 72.9046 33.5695C76.9196 33.2595 79.4916 35.9035 78.9936 39.9055C78.2216 46.1225 76.4346 52.0715 74.2696 57.9175C73.2626 60.6365 69.4146 62.9305 66.4786 62.6925C64.5556 62.5375 63.4356 60.8095 63.9096 58.8675C64.3616 57.0155 65.3956 55.5105 66.4596 53.9815C67.1536 52.9825 67.6486 51.8395 68.1836 50.7375C68.7416 49.5875 69.4316 48.4545 69.7186 47.2325C70.1116 45.5595 70.1786 43.8095 70.3846 42.0925C70.2576 42.0135 70.1296 41.9335 70.0026 41.8535C69.4316 42.2695 68.8666 42.6955 68.2876 43.0995C67.5766 43.5945 66.9076 44.2015 66.1246 44.5305C64.6276 45.1575 63.0596 45.6155 61.5246 46.1555C60.0036 46.6895 58.5016 47.2125 56.9536 46.1745C56.7726 46.0525 56.2526 46.1975 56.0446 46.3875C52.9716 49.2115 49.0756 50.2835 45.2626 51.5675C43.0916 52.2985 40.9706 53.1835 38.8426 54.0395C37.9406 54.4015 37.6906 55.1445 37.4886 56.1065C36.9496 58.6865 36.2296 61.2345 35.4656 63.7605C35.2606 64.4385 34.7616 65.1645 34.1876 65.5725C31.1246 67.7535 29.3496 71.0205 27.5516 74.0775C25.6326 77.3425 24.2846 81.0535 25.0966 85.1005C25.3026 86.1295 25.3736 87.2145 25.3116 88.2625C25.1836 90.4345 23.5706 91.6115 21.4686 91.1295C20.3936 90.8825 19.3286 90.5685 18.2856 90.2095C16.6306 89.6395 15.8716 88.5375 15.8986 86.7985C15.9086 86.1835 15.9276 85.5425 16.0986 84.9585C16.9786 81.9665 17.9056 78.9885 18.8266 76.0095C18.9306 75.6735 19.1776 75.3665 19.2206 75.0285C19.7306 71.0025 22.4406 68.0375 24.1406 64.5835C24.9516 62.9335 25.1066 60.9475 25.4716 59.0965C26.1186 55.8125 26.7106 52.5175 27.2966 49.2215C27.3866 48.7175 27.3476 48.1845 27.3316 47.6665C27.2906 46.4005 27.3006 45.1265 27.1506 43.8725C27.0546 43.0715 26.5456 42.3095 26.5066 41.5165C26.4266 39.8805 25.4146 39.3575 24.0716 38.8975C22.5756 38.3865 21.1456 37.6685 19.7136 36.9855C19.1226 36.7045 18.4006 36.4055 18.0806 35.8985C16.6256 33.5895 14.1806 32.5025 12.1006 31.0245C7.0606 27.4435 4.0286 22.5885 2.3286 16.7755C1.3606 13.4665 0.461599 10.1445 0.536599 6.64254C0.548599 6.09054 0.268596 5.53554 0.139596 4.97754C-0.252404 3.28454 0.187602 1.96554 1.3786 1.23254C2.6336 0.460533 4.0366 0.689537 5.3686 1.89454C6.7056 3.10454 8.1096 4.25353 9.3546 5.55354C11.7106 8.01653 14.6736 9.61053 17.5076 11.3745C18.6796 12.1045 20.0686 12.5265 21.4026 12.9465C24.3186 13.8655 27.2986 14.0995 30.3756 14.2295C36.7366 14.4985 42.3346 16.8235 46.3246 22.1015C48.1146 24.4695 50.2846 26.3855 52.8636 27.8145C53.5606 28.2005 54.4406 28.3875 55.2456 28.4145C56.2016 28.4475 56.7916 27.8775 57.1366 26.8885C58.2656 23.6535 57.4646 20.9195 55.2376 18.4595C54.2646 17.3855 53.3596 16.4815 51.7416 16.1585C49.3826 15.6875 48.5366 13.5555 49.4346 11.2935C50.0086 9.84653 50.6066 8.40254 52.2596 7.81154C52.4466 7.74454 52.6076 7.54853 52.7336 7.37753C54.2226 5.37053 55.6716 3.33254 57.1956 1.35254C58.0776 0.206535 59.2956 -0.246468 60.7336 0.129532C62.1656 0.503532 62.9676 1.50454 63.2676 2.90854C63.4246 3.64054 63.6316 4.41054 63.5516 5.13354C63.3226 7.17654 64.0706 8.95254 64.8476 10.7405C64.9006 10.8625 64.9696 10.9785 65.0066 11.1055C66.2916 15.4445 67.7276 19.7475 68.8026 24.1385C69.5396 27.1495 68.7626 30.1885 67.8836 33.5085Z" fill="#3A3434"/>
</svg>
