<svg width="197" height="54" viewBox="0 0 197 54" fill="none" xmlns="http://www.w3.org/2000/svg">
<path d="M17.013 22.8903C14.982 20.0553 12.86 17.4213 9.264 16.3393C7.47 15.7983 5.717 15.8942 4.02 15.9912C3.218 16.0352 2.387 16.0843 1.582 16.0543C1.05 16.0703 0.632 16.4902 0.355 16.7882C0.294 16.8542 0.243 16.9123 0.202 16.9463L0 17.1053L0.0130005 17.3613C0.0360005 17.8863 0.0649996 18.3833 0.0909996 18.8613C0.146 19.8343 0.197001 20.7533 0.200001 21.6513C0.201001 22.6653 0.178001 23.6803 0.154001 24.6953C0.129001 25.7543 0.104001 26.8153 0.109001 27.8743C0.132001 33.2023 0.169 38.5283 0.205 43.8553L0.257 51.5703C0.262 52.3363 0.354001 53.2713 1.028 53.7073C1.275 53.8683 1.558 53.9323 1.862 53.9323C2.452 53.9323 3.118 53.6863 3.732 53.4163L4.052 53.2753L4.03 52.9263C3.96 51.8693 3.88 50.8323 3.801 49.8083C3.628 47.5523 3.464 45.4223 3.422 43.2653C3.321 38.0643 3.302 32.4473 3.364 26.0933C3.376 24.7613 3.536 23.3953 3.691 22.0743C3.752 21.5473 3.814 21.0213 3.867 20.4953C6.068 19.5713 8.55 19.6693 10.722 20.7793C12.844 21.8633 14.313 23.7623 14.751 25.9903C14.857 26.5273 14.72 27.1773 14.57 27.9003C14.266 29.3623 13.303 30.4243 12.284 31.5493C12.088 31.7653 11.893 31.9803 11.702 32.1993C11.461 32.4743 11.269 32.7833 11.066 33.1103C10.97 33.2643 10.867 33.4293 10.75 33.6053L10.216 34.4103L11.182 34.3813C13.357 34.3163 15.122 34.0113 16.672 32.7343C18.722 31.0443 19.469 28.7563 18.721 26.4563C18.244 24.9953 17.686 23.8283 17.013 22.8903Z" fill="#EFECDF"/>
<path d="M191.771 19.3785C190.054 17.9265 188.099 16.5565 185.443 16.3575C181.751 16.0865 178.959 17.2235 176.698 19.9355C176.579 19.7915 176.465 19.6565 176.358 19.5265C175.947 19.0315 175.592 18.6045 175.203 18.2145C172.407 15.4135 169.393 15.2255 166.247 17.6615C162.643 20.4545 160.645 24.4265 159.959 30.1615C159.674 32.5385 161.262 33.8965 162.798 35.2085L163.733 36.0145L163.944 35.2535C164.306 33.9505 164.44 32.7845 164.352 31.6895C164.102 28.5435 165.326 25.8075 166.83 22.8125C167.6 21.2755 169.026 20.4185 170.654 20.4975C172.069 20.5725 172.932 21.9835 173.268 23.2805C173.594 24.5315 173.795 25.8515 173.99 27.1265C174.117 27.9625 174.245 28.7985 174.406 29.6265L174.436 29.7805C174.645 30.8555 174.861 31.9655 175.387 32.9345C175.936 33.9465 177.09 34.6575 178.425 33.9835C179.633 33.3705 180.131 32.4755 179.946 31.2435L179.896 30.9115C179.716 29.7255 179.53 28.4985 179.606 27.3365C179.734 25.3775 180.058 23.3895 181.558 22.1165C182.948 20.9395 184.876 20.5135 186.728 20.9855C188.46 21.4275 189.799 22.5715 190.399 24.1265C191.161 26.0965 191.654 28.2265 192.131 30.2865C192.367 31.3035 192.602 32.3195 192.869 33.3235C192.967 33.6945 193.115 34.0325 193.285 34.4245C193.366 34.6105 193.453 34.8115 193.542 35.0335L193.907 35.9395L194.428 35.1145C197.446 30.3555 196.228 23.1495 191.771 19.3785Z" fill="#EFECDF"/>
<path d="M59.721 29.9947L59.532 30.0287C58.405 30.2237 57.481 29.9767 56.354 29.5127C54.075 28.5697 53.476 26.4177 53.058 24.2947C51.901 18.4177 51.769 13.1907 52.656 8.31366C53.024 6.28466 53.23 4.73066 53.324 3.27766C53.409 1.94966 53.195 1.12366 52.632 0.599659C52.017 0.025659 51.058 -0.12434 49.428 0.0986595L49.026 0.15266L48.996 0.557659C48.964 1.02266 48.944 1.49266 48.924 1.96466C48.882 2.94966 48.839 3.96966 48.671 4.93666C47.457 11.8847 47.773 18.8877 49.607 25.7517C50.693 29.8117 53.426 32.3807 57.73 33.3867C58.387 33.5397 59.15 33.6757 59.95 33.6757C61.385 33.6757 62.938 33.2387 64.205 31.6857L64.462 31.3707L64.206 31.0557C62.893 29.4317 61.135 29.7457 59.721 29.9947Z" fill="#EFECDF"/>
<path d="M136.253 32.6958C134.726 31.7738 132.308 32.4858 130.543 33.0068C129.846 33.2118 129.131 33.4088 128.852 33.4008C126.94 33.2348 126.44 32.8448 125.945 31.0998C125.807 28.8348 126.604 27.4078 127.307 26.1478C127.612 25.5998 127.901 25.0828 128.096 24.5368C128.861 22.3898 128.896 18.5058 126.97 16.7978C126.055 15.9848 124.327 15.3348 121.303 16.8428C121.152 16.9178 120.999 16.9678 120.857 16.9908C119.235 17.2518 117.518 17.5538 115.753 17.8888C115.036 18.0248 114.504 18.3998 114.254 18.9438C114.004 19.4868 114.066 20.1308 114.426 20.7578C115.381 22.4158 116.727 22.7708 118.43 21.8158C119.019 21.4858 119.72 21.3688 120.446 21.2678C120.636 21.2418 120.882 21.1748 121.158 21.0948C121.677 20.9478 122.325 20.7618 122.788 20.8668C123.338 20.9888 123.758 21.2758 124.003 21.6958C124.272 22.1558 124.313 22.7368 124.12 23.3768C123.857 24.2508 123.496 25.1258 123.148 25.9698C122.865 26.6568 122.582 27.3438 122.341 28.0458C121.177 31.4328 122.332 34.2728 125.512 35.8368C127.316 36.7238 129.107 37.1678 130.875 37.1678C133.056 37.1678 135.201 36.4928 137.293 35.1428L137.579 34.9588L137.512 34.6248C137.333 33.7408 136.91 33.0918 136.253 32.6958Z" fill="#EFECDF"/>
<path d="M39.4944 30.7517L39.0594 30.7817C38.2244 30.8407 37.3684 30.7827 36.5784 30.6257C33.8704 30.0847 32.4604 28.6587 32.1414 26.1377C31.9564 24.6787 32.0544 23.1477 32.1874 21.7107C32.2464 21.0757 32.4004 20.4497 32.5634 19.7877C32.6934 19.2617 32.8274 18.7177 32.9104 18.1647C33.0024 17.5617 32.8274 16.9347 32.4204 16.4017C31.9464 15.7807 31.2014 15.3557 30.4264 15.2657C29.8434 15.1967 29.3074 15.3417 28.8854 15.6817C28.4104 16.0627 28.1184 16.6547 28.0424 17.3957C27.7774 19.9337 27.5364 22.4197 27.4744 24.9417C27.4304 26.8177 28.2254 28.6477 29.7754 30.2337C32.3724 32.8927 35.4354 34.2327 38.9044 34.2327C39.4934 34.2327 40.0954 34.1937 40.7074 34.1167C42.1164 33.9387 43.5734 33.7527 44.6374 32.3227L44.9554 31.8947L44.5084 31.6047C42.8244 30.5127 41.1314 30.6337 39.4944 30.7517Z" fill="#EFECDF"/>
<path d="M80.2933 29.6001C78.2513 29.7361 76.6013 29.2601 75.5123 28.2411C74.4463 27.2421 73.9063 25.7471 73.9053 23.7991C73.9043 22.1351 74.2633 20.4181 74.6093 18.7571L74.6623 18.5021C75.0573 16.6041 74.4163 15.5191 72.6453 15.0891C71.9423 14.9201 71.2933 15.0231 70.7713 15.3891C70.1643 15.8151 69.7873 16.5491 69.6813 17.5131C69.6273 18.0061 69.5993 18.5011 69.5713 18.9971C69.5423 19.5371 69.5133 20.0761 69.4453 20.6101C68.5723 27.5571 72.0003 30.3671 75.8343 32.3691C76.8693 32.9091 77.9113 33.1771 78.9293 33.1771C80.4273 33.1771 81.8713 32.5951 83.1603 31.4451L83.5683 31.0801L83.1693 30.7061C81.9393 29.5551 81.8063 29.5001 80.2933 29.6001Z" fill="#EFECDF"/>
<path d="M153.834 32.193C153.617 31.816 153.196 31.605 152.757 31.64L152.119 31.704C151.458 31.769 150.841 31.831 150.223 31.867C146.878 32.054 145.393 30.595 145.12 26.805C145.002 25.182 146.344 21.578 147.28 20.085C147.851 19.179 148.04 18.414 147.86 17.747C147.707 17.177 147.285 16.707 146.605 16.349C145.891 15.974 145.233 15.89 144.654 16.108C143.969 16.363 143.432 17.007 143.011 18.079C142.685 18.914 142.288 20.018 142.12 21.171C141.678 24.235 140.757 30.611 144.421 33.572C146.001 34.849 147.817 35.496 149.599 35.496C151.078 35.496 152.534 35.049 153.811 34.147C154.267 33.823 154.402 33.182 154.118 32.689L153.834 32.193Z" fill="#EFECDF"/>
<path d="M106.604 32.4303C106.027 31.7373 106.919 30.7493 104.618 29.6353C104.541 29.5983 104.47 29.5493 104.394 29.5093C104.381 29.5023 104.368 29.4963 104.354 29.4903C104.229 29.4593 104.087 29.4273 103.965 29.3833C103.934 29.3823 103.901 29.3803 103.869 29.3803C103.818 29.3803 103.716 29.4003 103.652 29.3943C103.625 29.4003 103.597 29.4053 103.57 29.4113C103.47 29.4343 103.373 29.4633 103.275 29.4923C102.377 29.9453 101.463 30.4173 100.491 30.6373C99.2704 31.3553 97.8904 31.1873 97.1144 31.0893C96.9784 31.0723 96.8654 31.0583 96.7784 31.0513C95.7394 30.9773 95.0534 30.4923 94.6214 29.5253C93.6954 27.4513 93.4484 25.2683 93.8884 23.0373C94.4614 20.1293 96.9404 17.9333 99.4724 18.7023C102.919 19.7493 103.653 23.6443 103.763 24.0713C104.233 23.8553 104.611 23.4563 104.754 22.9343C105.411 20.5413 104.741 18.9843 104.062 18.0983C103.039 16.7623 101.256 15.9973 99.1684 15.9973H99.1314C98.1424 16.0013 97.0664 16.0663 95.7434 16.2013C91.9874 16.5793 89.7884 19.3793 89.5494 24.0853C89.4144 26.7533 90.2334 29.4243 91.8574 31.6063C93.7904 34.2013 95.8804 35.2603 98.4504 34.9523C99.1104 34.8723 99.7864 34.6223 100.458 34.2083C102.223 33.1193 102.935 33.7753 103.168 33.9873C105.655 36.2613 104.266 46.5363 103.772 47.5263C102.901 49.2683 101.831 49.7963 101.048 50.1823L100.911 50.2503C99.7404 50.8373 98.3414 50.3723 97.2194 50.0003C96.3244 49.7033 95.6154 49.4703 95.1184 49.8293C94.8534 50.0203 94.7194 50.3293 94.7214 50.7833C94.7214 50.8493 94.7034 50.9793 94.6844 51.1393C94.6464 51.4533 94.5984 51.8643 94.5964 52.1983C94.5934 52.7503 94.9794 53.2233 95.5354 53.3463C96.9154 53.6533 98.1834 53.8053 99.3404 53.8053C103.805 53.8053 106.612 51.5313 107.705 47.0103C108.678 42.9803 107.806 33.8743 106.604 32.4303Z" fill="#EFECDF"/>
</svg>
