<svg width="85" height="79" viewBox="0 0 85 79" fill="none" xmlns="http://www.w3.org/2000/svg">
<path d="M50.5209 13.2615C50.9179 12.4645 51.3099 11.7745 51.6159 11.0485C52.8019 8.24149 54.4799 5.78149 56.6459 3.6365C57.1739 3.11349 57.5589 2.44749 58.0259 1.8615C59.3139 0.242493 60.8349 -0.3395 62.4189 0.190498C63.9029 0.686501 64.7649 1.68449 64.9249 3.2785C65.0429 4.46449 65.1469 5.65949 65.3949 6.8215C65.7759 8.6095 65.6229 10.3175 65.0469 12.0395C64.5009 13.6725 64.0599 15.3405 63.5839 16.9965C63.5249 17.1995 63.5359 17.4235 63.5119 17.6625C63.6659 17.7165 63.7989 17.8175 63.8959 17.7905C68.1799 16.5585 71.8269 18.0195 75.5899 20.0295C80.5779 22.6935 82.8699 27.0835 84.3999 32.0805C86.4959 38.9295 81.1019 47.6025 74.3299 48.4335C72.1539 48.6995 70.0979 48.2105 68.2169 47.1105C67.0499 46.4285 66.5599 45.1445 66.8509 43.9215C67.1449 42.6875 68.1789 41.7345 69.5229 41.7385C71.2889 41.7445 72.3579 40.6715 72.9859 39.3385C73.7429 37.7315 73.7189 35.9665 72.5689 34.4265C69.7309 30.6265 64.7659 30.6785 62.1269 34.6565C59.6549 38.3845 58.2669 42.4995 57.7109 47.0025C57.2029 51.1135 58.0909 54.6585 60.3529 58.0325C61.1249 59.1845 61.5379 60.5765 62.1289 61.8515C62.2759 62.1665 62.4189 62.5195 62.6639 62.7475C65.9749 65.8455 69.4899 68.4655 74.3499 68.5655C75.7039 68.5935 76.9119 68.5525 78.1789 68.0365C79.6709 67.4295 81.2139 68.1175 81.9029 69.4625C82.5979 70.8175 82.2339 72.4165 80.9169 73.3415C79.0919 74.6235 77.2769 75.9385 75.3439 77.0405C74.1799 77.7045 72.8339 78.1525 71.5129 78.4185C64.0759 79.9145 57.4779 78.5035 51.8099 73.0765C48.4369 69.8455 45.6329 66.1755 42.6199 62.6605C42.3539 62.3485 41.6569 62.0115 41.3979 62.1465C38.0759 63.8735 34.4399 64.2595 30.8349 64.3655C27.0119 64.4775 23.1739 64.1095 19.3429 63.9335C17.4049 63.8445 15.4659 63.7485 13.5319 63.5975C9.83489 63.3105 7.05289 61.3985 4.91689 58.4995C3.50289 56.5805 2.18289 54.5885 0.908886 52.5725C0.473886 51.8845 0.177886 51.0465 0.047886 50.2405C-0.270114 48.2695 1.02689 46.6625 3.01189 46.7035C4.16989 46.7275 5.40189 46.9935 6.45789 47.4675C10.5039 49.2815 14.6529 50.7175 18.9659 51.7785C21.2279 52.3355 23.3019 52.1075 25.2639 51.1405C27.0309 50.2705 28.6259 49.0525 30.3029 47.9965C32.0159 46.9175 33.6649 45.7035 35.4739 44.8185C37.3299 43.9095 38.8459 42.7655 39.8559 40.9495C42.2069 36.7235 43.9669 32.3465 43.7469 27.3735C43.6889 26.0635 43.4699 24.9345 42.3359 24.1275C42.0169 23.9015 41.6979 23.6065 41.5159 23.2695C40.0989 20.6495 37.5839 20.1975 34.9849 19.9705C34.3559 19.9155 33.6359 20.0355 33.0699 20.3095C31.8809 20.8845 30.7659 21.6135 29.6219 22.2825C28.6839 22.8305 28.3009 23.6225 28.4129 24.7245C28.4979 25.5545 28.3359 26.4135 28.4629 27.2325C28.5529 27.8135 28.8449 28.4315 29.2249 28.8825C29.6099 29.3385 30.2499 29.5675 30.7169 29.9675C31.8049 30.9005 32.0909 32.3505 31.4859 33.5755C30.8569 34.8495 29.4599 35.5225 28.0389 35.1685C27.4899 35.0315 26.9169 34.8305 26.4599 34.5095C23.4479 32.3915 20.9119 29.8945 19.6819 26.2715C18.6949 23.3635 17.9049 20.4435 18.0659 17.3405C18.0839 16.9895 18.0519 16.6045 18.1839 16.2945C20.7909 10.1825 25.6809 5.00149 33.5299 7.45349C33.9029 7.56949 34.3179 7.67749 34.6949 7.63349C40.6669 6.92749 45.7529 8.74249 50.0149 12.9515C50.1049 13.0395 50.2339 13.0875 50.5209 13.2615Z" fill="#3A3434"/>
</svg>
