<svg width="66" height="45" viewBox="0 0 66 45" fill="none" xmlns="http://www.w3.org/2000/svg">
<path d="M41.5949 16.9804C43.2459 16.6784 44.5629 16.2144 45.8679 16.2474C48.2259 16.3074 49.6449 17.8564 49.8779 20.2164C50.4629 26.1354 46.3609 30.2014 40.3399 29.7764C35.3379 29.4224 31.7109 27.2334 29.8099 22.4394C29.3249 21.2155 28.6039 20.0804 27.9589 18.9224C26.8759 16.9764 26.6219 14.8895 27.6149 12.9394C29.1939 9.83845 30.8389 6.73445 32.8209 3.88645C34.4199 1.58745 36.8689 0.108448 39.7849 0.0224495C45.8919 -0.157551 51.7599 0.699448 56.9609 4.31145C59.0909 5.79045 60.4739 7.72845 61.4289 10.0804C62.4739 12.6534 63.6119 15.1874 64.6819 17.7494C66.8759 23.0024 65.6679 27.7604 62.5459 32.2354C62.0939 32.8834 61.6079 33.5204 61.2489 34.2194C59.3399 37.9394 56.6769 40.8124 52.5829 42.1314C51.1549 42.5924 49.7269 43.0574 48.3079 43.5464C43.8799 45.0714 39.5349 43.8144 35.2259 43.0094C32.3779 42.4774 29.5309 41.6564 26.8539 40.5514C20.7099 38.0124 15.6359 33.9604 11.2259 28.9894C9.41992 26.9534 7.15492 25.3314 5.27492 23.3534C4.21192 22.2364 3.39592 20.8384 2.66992 19.4604C1.80692 17.8224 1.07092 16.1034 0.438921 14.3624C-0.700079 11.2214 0.425918 8.34745 3.25692 6.95645C5.19792 6.00245 7.11192 6.26845 8.98692 7.21245C9.77292 7.60845 10.5579 8.01545 11.3739 8.34045C15.1039 9.82545 17.3039 12.8634 19.1639 16.1654C19.9449 17.5534 20.7949 18.7715 22.1279 19.6374C24.9369 21.4614 27.3199 23.7694 29.3769 26.3784C30.0399 27.2194 30.2089 28.4394 30.6659 29.4574C30.8719 29.9154 31.1559 30.5844 31.5299 30.6834C34.9379 31.5824 38.3339 32.7364 41.8089 33.1034C45.4439 33.4874 48.6039 31.6964 51.1689 29.1524C52.8149 27.5194 54.4329 25.8364 54.7899 23.2924C55.0899 21.1554 54.5149 19.4834 53.0269 18.0114C51.4889 16.4894 49.9719 14.9454 48.4719 13.3864C46.9819 11.8384 45.9159 11.7874 44.4889 13.3834C43.4799 14.5114 42.5849 15.7414 41.5949 16.9804Z" fill="#3A3434"/>
</svg>
