<svg width="1920" height="1080" viewBox="0 0 1920 1080" fill="none" xmlns="http://www.w3.org/2000/svg">
<mask id="mask0_2_47" style="mask-type:luminance" maskUnits="userSpaceOnUse" x="0" y="0" width="1920" height="1080">
<path d="M0 0H1920V1080H0V0Z" fill="white"/>
</mask>
<g mask="url(#mask0_2_47)">
<path d="M963.896 872.005C962.183 871.438 959.774 872.206 958.844 873.621C957.13 876.226 957.794 879.752 960.46 882.197C961.144 882.824 961.7 883.138 962.246 883.138C962.792 883.138 963.33 882.825 963.977 882.201C965.792 880.454 966.413 878.18 966.781 876.185L966.789 876.099C966.808 874.232 965.646 872.586 963.896 872.005Z" fill="white"/>
<path d="M964.895 228.797C964.9 228.572 964.92 228.346 964.94 228.119C964.985 227.605 965.032 227.071 964.926 226.539C964.322 223.503 964.262 220.359 964.205 217.317C964.182 216.079 964.159 214.843 964.1 213.609C963.903 209.401 963.898 205.107 963.892 200.953C963.89 199.46 963.888 197.968 963.877 196.475C963.863 194.37 963.861 192.265 963.86 190.16C963.859 187.88 963.857 185.601 963.838 183.321C963.831 182.359 963.774 181.387 963.719 180.446C963.686 179.887 963.654 179.327 963.631 178.768C963.58 177.499 963.531 176.231 963.483 174.962C963.404 172.879 963.324 170.796 963.229 168.714C963.184 167.698 963.099 165.809 960.504 165.809H960.499H960.038L960.001 166.269C959.983 166.498 959.959 166.71 959.938 166.911C959.894 167.325 959.852 167.717 959.865 168.11C959.933 170.251 960.008 172.392 960.084 174.531C960.206 177.967 960.327 181.402 960.417 184.84C960.468 186.735 960.476 188.633 960.484 190.53C960.49 192.139 960.497 193.747 960.529 195.355C960.564 197.115 960.622 198.875 960.679 200.636C960.758 203.05 960.84 205.546 960.859 207.998C960.872 209.682 960.818 211.401 960.766 213.064C960.68 215.857 960.59 218.745 960.806 221.576C961.227 227.075 961.127 232.666 961.031 238.073C961.006 239.402 960.983 240.731 960.966 242.06C960.934 244.694 960.8 247.376 960.671 249.97C960.555 252.293 960.435 254.696 960.388 257.065C960.27 262.997 960.213 269.029 960.158 274.862C960.135 277.346 960.112 279.828 960.083 282.311C960.076 283.039 960.062 283.768 960.049 284.495C960.018 286.19 959.986 287.941 960.022 289.667C960.062 291.574 960.134 293.481 960.207 295.388C960.287 297.509 960.367 299.63 960.403 301.752C960.433 303.535 960.407 305.354 960.381 307.111C960.361 308.519 960.34 309.927 960.347 311.333C960.353 312.627 960.389 313.921 960.424 315.215C960.469 316.831 960.516 318.503 960.499 320.142C960.444 325.791 960.333 331.536 960.226 337.092L960.133 341.676C960.04 345.82 959.942 350.106 960.463 354.331L960.481 354.477C960.629 355.67 960.77 356.797 960.356 357.893C960.196 358.319 960.251 358.831 960.358 359.168C960.793 360.553 960.712 361.99 960.626 363.512C960.521 365.367 960.412 367.285 961.303 369.133C961.293 369.159 961.278 369.193 961.257 369.232C960.628 370.41 960.667 371.629 960.706 372.809C960.721 373.307 960.737 373.777 960.702 374.239C960.598 375.638 960.718 377.054 960.833 378.424C960.901 379.224 960.969 380.025 960.993 380.823C961.082 383.857 961.125 386.86 961.121 389.75C961.115 394.101 961.078 398.45 961.04 402.8L961.016 405.517C961.005 406.787 960.988 820.058 960.971 821.328C960.946 823.174 960.92 825.02 960.916 826.865C960.913 827.985 960.973 829.112 961.032 830.201C961.137 832.152 961.247 834.169 960.986 836.175C960.645 838.799 960.7 841.5 960.753 844.113C960.773 845.069 960.792 846.026 960.793 846.981C960.795 848.842 960.889 850.709 960.986 852.462C961.021 853.103 961.235 853.587 961.62 853.901C961.944 854.167 962.368 854.298 962.905 854.298C963.089 854.298 963.287 854.282 963.499 854.252L963.763 854.213L966.146 849.204L966.109 849.036C966.016 848.619 965.908 848.203 965.799 847.788C965.565 846.895 965.344 846.051 965.284 845.193C964.911 839.998 964.631 835.165 964.432 830.419C964.259 826.344 964.15 410.195 964.044 406.184L963.915 401.421C963.834 398.562 963.751 395.606 963.731 392.7C963.727 392.151 963.792 391.604 963.861 391.023C963.934 390.413 964.008 389.782 963.998 389.146C963.984 388.359 963.9 387.562 963.82 386.791C963.673 385.401 963.536 384.086 963.776 382.845C963.994 381.71 963.913 380.619 963.833 379.564C963.752 378.483 963.675 377.462 963.899 376.401C964.264 374.666 964.11 372.831 963.96 371.057C963.891 370.229 963.819 369.373 963.803 368.549C963.749 365.757 963.691 362.511 963.709 359.318C963.722 357.189 963.755 355.061 963.79 352.932C963.836 349.961 963.885 346.89 963.873 343.866C963.864 341.804 963.767 339.713 963.672 337.692C963.513 334.271 963.348 330.735 963.615 327.26C963.73 325.748 963.66 324.212 963.592 322.727C963.574 322.324 963.556 321.923 963.541 321.522C963.519 320.922 963.459 320.319 963.399 319.718C963.291 318.645 963.19 317.632 963.302 316.64C963.371 316.034 963.283 315.444 963.198 314.873C963.056 313.92 962.933 313.097 963.506 312.333C963.761 311.994 963.77 311.368 963.525 311.044C962.789 310.076 962.961 308.963 963.144 307.784C963.209 307.36 963.278 306.92 963.296 306.498C963.317 306.021 963.371 305.549 963.424 305.08C963.602 303.517 963.787 301.901 962.772 300.34C962.764 300.303 962.774 300.172 962.821 300.046C963.95 297.05 963.662 293.818 963.401 290.901C963.22 288.88 963.269 286.832 963.316 284.852C963.347 283.542 963.379 282.187 963.345 280.847C963.245 276.921 963.419 272.914 963.589 269.038C963.651 267.639 963.711 266.24 963.761 264.842C963.808 263.502 963.886 262.164 963.964 260.825C964.03 259.707 964.095 258.59 964.143 257.472C964.175 256.722 964.182 255.97 964.19 255.219C964.2 254.279 964.209 253.308 964.271 252.362C964.352 251.112 964.466 249.862 964.58 248.613C964.772 246.489 964.972 244.293 965.004 242.121C965.02 241.082 964.933 240.037 964.85 239.026C964.695 237.155 964.549 235.388 964.98 233.599C965.058 233.275 964.977 232.971 964.906 232.702C964.868 232.557 964.831 232.419 964.831 232.316C964.829 231.411 964.852 230.507 964.874 229.603L964.895 228.797Z" fill="white"/>
<path d="M977.623 123.799C977.575 123.752 977.526 123.713 977.48 123.682C977.359 123.457 977.17 123.276 976.94 123.167C976.652 123.03 976.347 123.003 976.076 122.98L973.763 122.684L973.601 122.692C973.044 122.617 972.498 122.536 971.959 122.456C970.418 122.228 968.963 122.012 967.477 121.984C966.624 121.967 965.872 121.757 965.242 121.361L965.107 121.302C964.669 121.183 964.313 120.914 964.012 120.455C963.924 120.33 963.803 119.808 963.758 119.611C963.715 119.426 963.682 119.282 963.627 119.172C963.513 118.802 963.441 118.474 963.404 118.147C963.244 116.718 963.13 115.255 963.019 113.841C962.885 112.124 962.746 110.349 962.524 108.607C962.455 108.065 962.453 107.508 962.45 106.918C962.444 105.392 962.436 103.661 961.08 102.219C960.98 102.113 960.892 101.998 960.804 101.887C960.443 101.424 959.948 100.793 958.946 101.041C957.742 101.341 957.71 102.371 957.688 103.053L957.682 103.227C957.61 104.945 957.529 106.663 957.447 108.381C957.313 111.199 957.18 114.017 957.089 116.836C957.061 117.687 956.876 118.416 956.521 119.064L956.464 119.263L956.482 119.421C956.495 119.699 956.308 119.947 956.201 120.065C956.11 120.147 955.729 120.29 955.566 120.352C955.332 120.441 955.161 120.505 955.05 120.62C954.521 120.974 953.9 121.275 953.205 121.515C952.846 121.639 952.467 121.723 952.09 121.809C951.443 121.955 950.775 122.107 950.175 122.439C948.606 123.302 947.117 123.499 945.487 123.058C944.914 122.902 943.167 122.428 942.261 124.445L942.084 124.837L942.446 125.07C945.396 126.966 948.02 127.579 950.698 126.995C951.624 126.801 953.148 127.21 953.764 127.408L954.022 127.499C954.305 127.653 955.666 128.968 955.873 129.576C955.912 129.691 955.935 129.819 955.943 129.979L956.004 130.192C957.116 132.22 957.681 133.88 957.834 135.574C957.966 137.032 958.135 138.487 958.304 139.941C958.491 141.55 958.685 143.215 958.821 144.853C958.9 145.799 958.963 146.756 959.022 147.71C959.097 147.823 959.168 147.938 959.245 148.05C959.263 148.073 959.284 148.1 959.307 148.127C959.384 148.216 959.463 148.303 959.546 148.388C959.639 148.483 959.738 148.572 959.836 148.662C959.852 148.677 959.868 148.69 959.885 148.704C960.072 148.821 960.251 148.942 960.447 149.047C960.457 149.052 960.479 149.062 960.503 149.074C960.528 149.083 960.552 149.092 960.565 149.097C960.662 149.127 960.757 149.16 960.855 149.185C960.973 149.216 961.091 149.236 961.208 149.261C960.93 149.201 961.173 149.252 961.325 149.253C961.393 149.253 961.469 149.239 961.536 149.246C961.545 149.247 961.54 149.247 961.546 149.248C961.625 149.225 961.712 149.195 961.735 149.189C961.749 149.185 961.754 149.185 961.766 149.182C961.771 149.178 961.772 149.177 961.779 149.172C961.85 149.127 961.925 149.084 961.998 149.04C962.025 149.015 962.055 148.99 962.081 148.966C962.16 148.89 962.232 148.809 962.306 148.728C962.319 148.715 962.324 148.71 962.333 148.7C962.338 148.692 962.34 148.688 962.347 148.677C962.4 148.594 962.457 148.514 962.509 148.43C962.589 148.3 962.656 148.162 962.727 148.027C962.758 146.954 962.789 145.882 962.821 144.81C962.853 143.738 962.877 142.667 962.9 141.595C962.959 138.97 963.019 136.254 963.209 133.599C963.301 132.307 964.571 129.279 964.749 129.011C965.162 128.5 965.6 128.167 966.125 127.965C966.205 127.935 966.289 127.915 966.372 127.895L966.478 127.856C967.051 127.567 967.574 127.388 968.128 127.294C969.463 127.067 970.79 126.797 972.151 126.521C972.778 126.393 973.413 126.264 974.059 126.137L974.197 126.096C975.2 126.051 976.332 125.934 977.399 125.386C977.673 125.246 977.856 124.985 977.904 124.668C977.953 124.344 977.848 124.019 977.623 123.799Z" fill="white"/>
<path d="M878.969 906.146C876.938 903.311 874.816 900.677 871.22 899.595C869.426 899.054 867.673 899.15 865.976 899.247C865.174 899.291 864.343 899.34 863.538 899.31C863.006 899.326 862.588 899.746 862.311 900.044C862.25 900.11 862.199 900.168 862.158 900.202L861.956 900.361L861.969 900.617C861.992 901.142 862.021 901.639 862.047 902.117C862.102 903.09 862.153 904.009 862.156 904.907C862.157 905.921 862.134 906.936 862.11 907.951C862.085 909.01 862.06 910.071 862.065 911.13C862.088 916.458 862.125 921.784 862.161 927.111L862.213 934.826C862.218 935.592 862.31 936.527 862.984 936.963C863.231 937.124 863.514 937.188 863.818 937.188C864.408 937.188 865.074 936.942 865.688 936.672L866.008 936.531L865.986 936.182C865.916 935.125 865.836 934.088 865.757 933.064C865.584 930.808 865.42 928.678 865.378 926.521C865.277 921.32 865.258 915.703 865.32 909.349C865.332 908.017 865.492 906.651 865.647 905.33C865.708 904.803 865.77 904.277 865.823 903.751C868.024 902.827 870.506 902.925 872.678 904.035C874.8 905.119 876.269 907.018 876.707 909.246C876.813 909.783 876.676 910.433 876.526 911.156C876.222 912.618 875.259 913.68 874.24 914.805C874.044 915.021 873.849 915.236 873.658 915.455C873.417 915.73 873.225 916.039 873.022 916.366C872.926 916.52 872.823 916.685 872.706 916.861L872.172 917.666L873.138 917.637C875.313 917.572 877.078 917.267 878.628 915.99C880.678 914.3 881.425 912.012 880.677 909.712C880.2 908.251 879.642 907.084 878.969 906.146Z" fill="white"/>
<path d="M1053.73 902.634C1052.01 901.182 1050.05 899.812 1047.4 899.613C1043.71 899.342 1040.91 900.479 1038.65 903.191C1038.53 903.047 1038.42 902.912 1038.31 902.782C1037.9 902.287 1037.55 901.86 1037.16 901.47C1034.36 898.669 1031.35 898.481 1028.2 900.917C1024.6 903.71 1022.6 907.682 1021.91 913.417C1021.63 915.794 1023.22 917.152 1024.75 918.464L1025.69 919.27L1025.9 918.509C1026.26 917.206 1026.4 916.04 1026.31 914.945C1026.06 911.799 1027.28 909.063 1028.79 906.068C1029.56 904.531 1030.98 903.674 1032.61 903.753C1034.02 903.828 1034.89 905.239 1035.22 906.536C1035.55 907.787 1035.75 909.107 1035.95 910.382C1036.07 911.218 1036.2 912.054 1036.36 912.882L1036.39 913.036C1036.6 914.111 1036.82 915.221 1037.34 916.19C1037.89 917.202 1039.05 917.913 1040.38 917.239C1041.59 916.626 1042.09 915.731 1041.9 914.499L1041.85 914.167C1041.67 912.981 1041.49 911.754 1041.56 910.592C1041.69 908.633 1042.01 906.645 1043.51 905.372C1044.9 904.195 1046.83 903.769 1048.68 904.241C1050.42 904.683 1051.75 905.827 1052.35 907.382C1053.12 909.352 1053.61 911.482 1054.09 913.542C1054.32 914.559 1054.56 915.575 1054.82 916.579C1054.92 916.95 1055.07 917.288 1055.24 917.68C1055.32 917.866 1055.41 918.067 1055.5 918.289L1055.86 919.195L1056.38 918.37C1059.4 913.611 1058.18 906.405 1053.73 902.634Z" fill="white"/>
<path d="M921.677 913.25L921.488 913.284C920.361 913.479 919.437 913.232 918.31 912.768C916.031 911.825 915.432 909.673 915.014 907.55C913.857 901.673 913.725 896.446 914.612 891.569C914.98 889.54 915.186 887.986 915.28 886.533C915.365 885.205 915.151 884.379 914.588 883.855C913.973 883.281 913.014 883.131 911.384 883.354L910.982 883.408L910.952 883.813C910.92 884.278 910.9 884.748 910.88 885.22C910.838 886.205 910.795 887.225 910.627 888.192C909.413 895.14 909.729 902.143 911.563 909.007C912.649 913.067 915.382 915.636 919.686 916.642C920.343 916.795 921.106 916.931 921.906 916.931C923.341 916.931 924.894 916.494 926.161 914.941L926.418 914.626L926.162 914.311C924.849 912.687 923.091 913.001 921.677 913.25Z" fill="white"/>
<path d="M998.209 915.951C996.682 915.029 994.264 915.741 992.499 916.262C991.802 916.467 991.087 916.664 990.808 916.656C988.896 916.49 988.396 916.1 987.901 914.355C987.763 912.09 988.56 910.663 989.263 909.403C989.568 908.855 989.857 908.338 990.052 907.792C990.817 905.645 990.852 901.761 988.926 900.053C988.011 899.24 986.283 898.59 983.259 900.098C983.108 900.173 982.955 900.223 982.813 900.246C981.191 900.507 979.474 900.809 977.709 901.144C976.992 901.28 976.46 901.655 976.21 902.199C975.96 902.742 976.022 903.386 976.382 904.013C977.337 905.671 978.683 906.026 980.386 905.071C980.975 904.741 981.676 904.624 982.402 904.523C982.592 904.497 982.838 904.43 983.114 904.35C983.633 904.203 984.281 904.017 984.744 904.122C985.294 904.244 985.714 904.531 985.959 904.951C986.228 905.411 986.269 905.992 986.076 906.632C985.813 907.506 985.452 908.381 985.104 909.225C984.821 909.912 984.538 910.599 984.297 911.301C983.133 914.688 984.288 917.528 987.468 919.092C989.272 919.979 991.063 920.423 992.831 920.423C995.012 920.423 997.157 919.748 999.249 918.398L999.535 918.214L999.468 917.88C999.289 916.996 998.866 916.347 998.209 915.951Z" fill="white"/>
<path d="M901.45 914.007L901.015 914.037C900.18 914.096 899.324 914.038 898.534 913.881C895.826 913.34 894.416 911.914 894.097 909.393C893.912 907.934 894.01 906.403 894.143 904.966C894.202 904.331 894.356 903.705 894.519 903.043C894.649 902.517 894.783 901.973 894.866 901.42C894.958 900.817 894.783 900.19 894.376 899.657C893.902 899.036 893.157 898.611 892.382 898.521C891.799 898.452 891.263 898.597 890.841 898.937C890.366 899.318 890.074 899.91 889.998 900.651C889.733 903.189 889.492 905.675 889.43 908.197C889.386 910.073 890.181 911.903 891.731 913.489C894.328 916.148 897.391 917.488 900.86 917.488C901.449 917.488 902.051 917.449 902.663 917.372C904.072 917.194 905.529 917.008 906.593 915.578L906.911 915.15L906.464 914.86C904.78 913.768 903.087 913.889 901.45 914.007Z" fill="white"/>
<path d="M942.249 912.856C940.207 912.992 938.557 912.516 937.468 911.497C936.402 910.498 935.862 909.003 935.861 907.055C935.86 905.391 936.219 903.674 936.565 902.013L936.618 901.758C937.013 899.86 936.372 898.775 934.601 898.345C933.898 898.176 933.249 898.279 932.727 898.645C932.12 899.071 931.743 899.805 931.637 900.769C931.583 901.262 931.555 901.757 931.527 902.253C931.498 902.793 931.469 903.332 931.401 903.866C930.528 910.813 933.956 913.623 937.79 915.625C938.825 916.165 939.867 916.433 940.885 916.433C942.383 916.433 943.827 915.851 945.116 914.701L945.524 914.336L945.125 913.962C943.895 912.811 943.762 912.756 942.249 912.856Z" fill="white"/>
<path d="M1015.79 915.448C1015.57 915.071 1015.15 914.86 1014.71 914.895L1014.07 914.959C1013.41 915.024 1012.8 915.086 1012.18 915.122C1008.83 915.309 1007.35 913.85 1007.08 910.06C1006.96 908.437 1008.3 904.833 1009.24 903.34C1009.81 902.434 1010 901.669 1009.82 901.002C1009.66 900.432 1009.24 899.962 1008.56 899.604C1007.85 899.229 1007.19 899.145 1006.61 899.363C1005.92 899.618 1005.39 900.262 1004.97 901.334C1004.64 902.169 1004.24 903.273 1004.08 904.426C1003.63 907.49 1002.71 913.866 1006.38 916.827C1007.96 918.104 1009.77 918.751 1011.55 918.751C1013.03 918.751 1014.49 918.304 1015.77 917.402C1016.22 917.078 1016.36 916.437 1016.07 915.944L1015.79 915.448Z" fill="white"/>
<path d="M968.56 915.686C967.983 914.993 968.875 914.005 966.574 912.891C966.496 912.854 966.426 912.805 966.35 912.765C966.337 912.758 966.324 912.752 966.31 912.746C966.185 912.715 966.043 912.683 965.921 912.639C965.89 912.638 965.857 912.636 965.825 912.636C965.774 912.636 965.672 912.656 965.608 912.65C965.581 912.656 965.553 912.661 965.526 912.667C965.426 912.69 965.329 912.719 965.231 912.748C964.333 913.201 963.419 913.673 962.447 913.893C961.226 914.611 959.846 914.443 959.07 914.345C958.934 914.328 958.821 914.314 958.734 914.307C957.695 914.233 957.009 913.748 956.577 912.781C955.651 910.707 955.404 908.524 955.844 906.293C956.417 903.385 958.896 901.189 961.428 901.958C964.875 903.005 965.609 906.9 965.719 907.327C966.189 907.111 966.567 906.712 966.71 906.19C967.367 903.797 966.697 902.24 966.018 901.354C964.995 900.018 963.212 899.253 961.124 899.253H961.087C960.098 899.257 959.022 899.322 957.699 899.457C953.943 899.835 951.744 902.635 951.505 907.341C951.37 910.009 952.189 912.68 953.813 914.862C955.746 917.457 957.836 918.516 960.406 918.208C961.066 918.128 961.742 917.878 962.414 917.464C964.179 916.375 964.891 917.031 965.124 917.243C967.611 919.517 966.222 929.792 965.728 930.782C964.857 932.524 963.787 933.052 963.004 933.438L962.867 933.506C961.696 934.093 960.297 933.628 959.175 933.256C958.28 932.959 957.571 932.726 957.074 933.085C956.809 933.276 956.675 933.585 956.677 934.039C956.677 934.105 956.659 934.235 956.64 934.395C956.602 934.709 956.554 935.12 956.552 935.454C956.549 936.006 956.935 936.479 957.491 936.602C958.871 936.909 960.139 937.061 961.296 937.061C965.761 937.061 968.568 934.787 969.661 930.266C970.634 926.236 969.762 917.13 968.56 915.686Z" fill="white"/>
<path d="M896.533 965.363V959.942H894.067V960.363C894.067 961.413 893.97 963.78 892.919 965.363H896.533ZM891.896 965.363C893.087 963.808 893.129 961.231 893.129 960.279V959.13H897.485V965.363H898.48V967.857H897.569V966.175H891.938V967.857H891.028V965.363H891.896Z" fill="#EFECDF"/>
<path d="M903.335 965.545C904.441 965.545 905.563 964.816 905.632 963.164H901.234C901.29 964.957 902.242 965.545 903.335 965.545ZM900.268 962.407H905.689C905.647 960.853 904.54 959.802 903.167 959.802C901.752 959.802 900.814 960.642 900.814 960.642L900.38 959.928C900.491 959.858 901.584 958.962 903.251 958.962C905.24 958.962 906.669 960.46 906.669 962.646C906.669 965.055 905.156 966.343 903.307 966.343C901.276 966.343 900.239 964.915 900.239 962.912C900.239 962.715 900.268 962.407 900.268 962.407Z" fill="#EFECDF"/>
<path d="M912.394 958.962C913.319 958.962 914.341 959.284 914.971 959.97L914.481 960.685C913.991 960.181 913.206 959.816 912.422 959.816C910.881 959.816 909.676 960.979 909.676 962.66C909.676 964.313 910.881 965.476 912.45 965.476C913.262 965.476 914.145 965.125 914.706 964.509L915.139 965.223C914.523 965.91 913.472 966.344 912.394 966.344C910.307 966.344 908.696 964.845 908.696 962.66C908.696 960.489 910.321 958.962 912.394 958.962Z" fill="#EFECDF"/>
<path d="M919.21 959.97H916.647V959.13H922.739V959.97H920.162V966.176H919.21V959.97Z" fill="#EFECDF"/>
<path d="M924.095 959.13H925.104L927.051 963.865C927.205 964.243 927.317 964.677 927.317 964.677H927.345C927.345 964.677 927.471 964.243 927.612 963.865L929.573 959.13H930.567L927.807 965.742V968.977H926.883V965.742L924.095 959.13Z" fill="#EFECDF"/>
<path d="M935.913 965.489C937.159 965.489 938.196 964.452 938.196 962.659C938.196 960.937 937.271 959.83 935.955 959.83C934.778 959.83 933.672 960.671 933.672 962.674C933.672 964.089 934.47 965.489 935.913 965.489ZM932.747 959.13H933.657V959.872C933.657 960.18 933.615 960.418 933.615 960.418H933.643C934.077 959.508 935.002 958.962 936.095 958.962C938 958.962 939.162 960.474 939.162 962.646C939.162 964.887 937.846 966.343 936.011 966.343C935.017 966.343 934.147 965.825 933.685 964.943H933.657C933.657 964.943 933.699 965.195 933.699 965.559V968.977H932.747V959.13Z" fill="#EFECDF"/>
<path d="M946.064 965.363V959.942H943.598V960.363C943.598 961.413 943.501 963.78 942.45 965.363H946.064ZM941.427 965.363C942.618 963.808 942.66 961.231 942.66 960.279V959.13H947.016V965.363H948.011V967.857H947.1V966.175H941.469V967.857H940.559V965.363H941.427Z" fill="#EFECDF"/>
<path d="M950.247 959.129H951.199V966.175H950.247V959.129ZM950.206 956.328H951.242V957.518H950.206V956.328Z" fill="#EFECDF"/>
<path d="M954.167 959.13H955.119V962.142H959.237V959.13H960.19V965.336H961.297V967.857H960.4V966.176H959.237V962.982H955.119V966.176H954.167V959.13Z" fill="#EFECDF"/>
<path d="M972.215 965.363V959.942H969.749V960.363C969.749 961.413 969.652 963.78 968.601 965.363H972.215ZM967.578 965.363C968.769 963.808 968.811 961.231 968.811 960.279V959.13H973.167V965.363H974.162V967.857H973.251V966.175H967.62V967.857H966.71V965.363H967.578Z" fill="#EFECDF"/>
<path d="M979.018 965.545C980.124 965.545 981.246 964.816 981.316 963.164H976.917C976.973 964.957 977.925 965.545 979.018 965.545ZM975.951 962.407H981.372C981.33 960.853 980.223 959.802 978.85 959.802C977.435 959.802 976.497 960.642 976.497 960.642L976.063 959.928C976.174 959.858 977.267 958.962 978.934 958.962C980.923 958.962 982.352 960.46 982.352 962.646C982.352 965.055 980.839 966.343 978.99 966.343C976.959 966.343 975.922 964.915 975.922 962.912C975.922 962.715 975.951 962.407 975.951 962.407Z" fill="#EFECDF"/>
<path d="M985.163 959.129H986.172L988.287 963.471C988.483 963.906 988.722 964.466 988.722 964.466H988.749C988.749 964.466 988.974 963.92 989.184 963.471L991.312 959.129H992.308L992.895 966.175H991.957L991.607 961.623C991.593 961.244 991.607 960.404 991.607 960.404H991.579C991.579 960.404 991.425 960.852 991.131 961.426L989.17 965.362H988.301L986.354 961.454C986.088 960.908 985.892 960.404 985.892 960.404H985.864C985.864 960.404 985.892 961.244 985.864 961.623L985.514 966.175H984.589L985.163 959.129Z" fill="#EFECDF"/>
<path d="M995.593 959.129H996.545V966.175H995.593V959.129ZM995.551 956.328H996.587V957.518H995.551V956.328Z" fill="#EFECDF"/>
<path d="M1004.02 959.129H1005.03L1007.14 963.471C1007.34 963.906 1007.58 964.466 1007.58 964.466H1007.61C1007.61 964.466 1007.83 963.92 1008.04 963.471L1010.17 959.129H1011.16L1011.75 966.175H1010.81L1010.46 961.623C1010.45 961.244 1010.46 960.404 1010.46 960.404H1010.44C1010.44 960.404 1010.28 960.852 1009.99 961.426L1008.03 965.362H1007.16L1005.21 961.454C1004.94 960.908 1004.75 960.404 1004.75 960.404H1004.72C1004.72 960.404 1004.75 961.244 1004.72 961.623L1004.37 966.175H1003.45L1004.02 959.129Z" fill="#EFECDF"/>
<path d="M1019.44 961.931C1019.38 960.46 1018.48 959.745 1017.43 959.745C1016.26 959.745 1015.23 960.516 1015.01 961.931H1019.44ZM1017.46 958.961C1019.41 958.961 1020.4 960.46 1020.4 962.211C1020.4 962.365 1020.39 962.533 1020.37 962.687H1014.97C1015.01 964.48 1016.24 965.475 1017.7 965.475C1018.47 965.475 1019.27 965.153 1019.84 964.634L1020.28 965.363C1019.62 965.965 1018.6 966.343 1017.67 966.343C1015.57 966.343 1013.97 964.83 1013.97 962.659C1013.97 960.348 1015.56 958.961 1017.46 958.961Z" fill="#EFECDF"/>
<path d="M1022.89 959.129H1023.85V962.141H1027.96V959.129H1028.92V966.175H1027.96V962.981H1023.85V966.175H1022.89V959.129Z" fill="#EFECDF"/>
<path d="M921.116 977.931C921.06 976.46 920.164 975.745 919.113 975.745C917.936 975.745 916.914 976.516 916.69 977.931H921.116ZM919.141 974.961C921.089 974.961 922.083 976.46 922.083 978.211C922.083 978.365 922.069 978.533 922.054 978.687H916.648C916.69 980.48 917.923 981.475 919.38 981.475C920.15 981.475 920.948 981.153 921.522 980.634L921.957 981.363C921.299 981.965 920.276 982.343 919.351 982.343C917.25 982.343 915.653 980.83 915.653 978.659C915.653 976.348 917.236 974.961 919.141 974.961Z" fill="#EFECDF"/>
<path d="M927.738 981.489C928.984 981.489 930.021 980.452 930.021 978.659C930.021 976.937 929.096 975.83 927.78 975.83C926.603 975.83 925.497 976.671 925.497 978.674C925.497 980.089 926.295 981.489 927.738 981.489ZM924.572 975.13H925.482V975.872C925.482 976.18 925.44 976.418 925.44 976.418H925.468C925.902 975.508 926.827 974.962 927.92 974.962C929.825 974.962 930.987 976.474 930.987 978.646C930.987 980.887 929.671 982.343 927.836 982.343C926.842 982.343 925.972 981.825 925.51 980.943H925.482C925.482 980.943 925.524 981.195 925.524 981.559V984.977H924.572V975.13Z" fill="#EFECDF"/>
<path d="M933.517 975.129H934.469V978.113H935.59L937.705 975.129H938.826L936.374 978.477V978.505L939.106 982.175H937.943L935.604 978.953H934.469V982.175H933.517V975.129Z" fill="#EFECDF"/>
<path d="M941.147 975.129H942.099V982.175H941.147V975.129ZM941.105 972.328H942.141V973.518H941.105V972.328Z" fill="#EFECDF"/>
<path d="M945.067 975.129H946.019V978.141H950.137V975.129H951.09V982.175H950.137V978.981H946.019V982.175H945.067V975.129Z" fill="#EFECDF"/>
<path d="M958.58 981.363V975.942H956.114V976.363C956.114 977.413 956.017 979.78 954.966 981.363H958.58ZM953.943 981.363C955.134 979.808 955.176 977.231 955.176 976.279V975.13H959.532V981.363H960.527V983.857H959.616V982.175H953.985V983.857H953.075V981.363H953.943Z" fill="#EFECDF"/>
<path d="M962.763 975.129H963.715V982.175H962.763V975.129ZM962.721 972.328H963.757V973.518H962.721V972.328Z" fill="#EFECDF"/>
<path d="M966.683 975.129H967.635V978.113H968.756L970.871 975.129H971.992L969.54 978.477V978.505L972.272 982.175H971.109L968.77 978.953H967.635V982.175H966.683V975.129Z" fill="#EFECDF"/>
<path d="M977.659 981.377C978.836 981.195 979.34 979.864 979.34 977.259V975.129H983.654V982.175H982.702V975.956H980.264V977.259C980.264 980.592 979.466 982.091 977.659 982.231V981.377Z" fill="#EFECDF"/>
<path d="M991.619 977.931C991.563 976.46 990.667 975.745 989.616 975.745C988.439 975.745 987.417 976.516 987.193 977.931H991.619ZM989.644 974.961C991.592 974.961 992.586 976.46 992.586 978.211C992.586 978.365 992.572 978.533 992.557 978.687H987.151C987.193 980.48 988.426 981.475 989.883 981.475C990.652 981.475 991.451 981.153 992.025 980.634L992.46 981.363C991.802 981.965 990.779 982.343 989.854 982.343C987.753 982.343 986.156 980.83 986.156 978.659C986.156 976.348 987.739 974.961 989.644 974.961Z" fill="#EFECDF"/>
<path d="M998.058 981.503C999.305 981.503 1000.31 980.592 1000.31 979.052C1000.31 977.497 999.305 976.586 998.114 976.586C996.742 976.586 995.803 977.651 995.803 979.024C995.803 980.592 996.826 981.503 998.058 981.503ZM997.665 973.196L1000.27 971.978L1000.62 972.776L997.904 974.023C996.307 974.779 995.746 975.788 995.649 977.273H995.677C996.307 976.138 997.259 975.788 998.31 975.788C1000.03 975.788 1001.29 976.993 1001.29 979.038C1001.29 980.985 999.977 982.343 998.086 982.343C995.775 982.343 994.766 980.565 994.766 978.183C994.766 975.802 995.327 974.261 997.665 973.196Z" fill="#EFECDF"/>
<path d="M1003.84 975.129H1004.79V982.175H1003.84V975.129ZM1003.8 972.328H1004.83V973.518H1003.8V972.328Z" fill="#EFECDF"/>
</g>
</svg>
