<svg width="90" height="121" viewBox="0 0 90 121" fill="none" xmlns="http://www.w3.org/2000/svg">
<path d="M88.501 56.8113C88.382 56.6943 88.26 56.5973 88.146 56.5193C87.844 55.9603 87.373 55.5073 86.801 55.2383C86.084 54.8973 85.323 54.8293 84.649 54.7713L78.888 54.0343L78.484 54.0533C77.098 53.8683 75.739 53.6673 74.396 53.4673C70.559 52.8983 66.935 52.3613 63.236 52.2903C61.111 52.2493 59.238 51.7263 57.67 50.7413L57.334 50.5933C56.242 50.2963 55.357 49.6273 54.606 48.4843C54.387 48.1733 54.085 46.8723 53.973 46.3813C53.866 45.9213 53.784 45.5643 53.647 45.2893C53.363 44.3673 53.185 43.5503 53.093 42.7353C52.694 39.1773 52.41 35.5353 52.135 32.0133C51.799 27.7383 51.454 23.3173 50.902 18.9783C50.729 17.6293 50.724 16.2423 50.717 14.7743C50.702 10.9733 50.683 6.66329 47.305 3.07129C47.057 2.80929 46.836 2.52229 46.617 2.24529C45.72 1.09229 44.487 -0.478718 41.991 0.139282C38.993 0.885282 38.913 3.45128 38.859 5.14828L38.842 5.58128C38.665 9.85928 38.463 14.1393 38.259 18.4173C37.925 25.4353 37.592 32.4513 37.366 39.4723C37.298 41.5903 36.836 43.4063 35.953 45.0193L35.81 45.5153L35.856 45.9093C35.887 46.6023 35.42 47.2203 35.155 47.5123C34.929 47.7163 33.981 48.0733 33.575 48.2263C32.991 48.4483 32.565 48.6083 32.288 48.8953C30.973 49.7763 29.426 50.5253 27.694 51.1233C26.799 51.4323 25.856 51.6413 24.917 51.8553C23.307 52.2203 21.644 52.5973 20.148 53.4233C16.243 55.5733 12.534 56.0643 8.475 54.9653C7.048 54.5763 2.697 53.3973 0.440002 58.4183L0 59.3963L0.902 59.9773C8.249 64.6983 14.784 66.2253 21.452 64.7703C23.757 64.2873 27.553 65.3063 29.085 65.7993L29.73 66.0253C30.433 66.4103 33.823 69.6833 34.338 71.1983C34.436 71.4823 34.492 71.8013 34.513 72.2003L34.664 72.7303C37.434 77.7813 38.84 81.9153 39.222 86.1353C39.55 89.7653 39.971 93.3863 40.391 97.0073C40.858 101.015 41.34 105.162 41.68 109.24C41.876 111.597 42.033 113.978 42.18 116.354C42.366 116.636 42.545 116.922 42.736 117.202C42.779 117.259 42.832 117.326 42.89 117.394C43.081 117.616 43.279 117.833 43.484 118.043C43.717 118.28 43.962 118.502 44.207 118.727C44.246 118.762 44.288 118.796 44.328 118.829C44.796 119.121 45.24 119.423 45.729 119.684C45.754 119.697 45.808 119.723 45.867 119.751C45.93 119.775 45.989 119.798 46.023 119.809C46.264 119.885 46.501 119.965 46.746 120.029C47.038 120.105 47.331 120.154 47.625 120.217C46.931 120.068 47.537 120.194 47.915 120.197C48.083 120.198 48.274 120.162 48.44 120.181C48.463 120.183 48.45 120.183 48.466 120.185C48.663 120.129 48.878 120.053 48.936 120.038C48.972 120.029 48.984 120.028 49.012 120.021C49.026 120.012 49.027 120.008 49.045 119.997C49.223 119.883 49.41 119.776 49.592 119.668C49.658 119.604 49.732 119.544 49.797 119.482C49.995 119.294 50.173 119.091 50.358 118.891C50.389 118.857 50.403 118.844 50.426 118.82C50.438 118.8 50.442 118.791 50.46 118.762C50.592 118.556 50.734 118.357 50.863 118.149C51.063 117.824 51.23 117.481 51.407 117.143C51.484 114.473 51.56 111.803 51.641 109.133C51.721 106.465 51.78 103.797 51.838 101.127C51.984 94.5903 52.132 87.8273 52.607 81.2153C52.835 77.9973 55.999 70.4593 56.442 69.7903C57.47 68.5183 58.56 67.6893 59.868 67.1853C60.068 67.1103 60.277 67.0613 60.483 67.0103L60.748 66.9133C62.174 66.1933 63.477 65.7483 64.856 65.5153C68.18 64.9483 71.485 64.2773 74.875 63.5893C76.436 63.2703 78.017 62.9493 79.625 62.6333L79.97 62.5313C82.468 62.4193 85.286 62.1273 87.944 60.7633C88.625 60.4153 89.082 59.7633 89.201 58.9753C89.323 58.1683 89.06 57.3583 88.501 56.8113Z" fill="#EFECDF"/>
</svg>
