<svg width="383" height="829" viewBox="0 0 383 829" fill="none" xmlns="http://www.w3.org/2000/svg">
<path fill-rule="evenodd" clip-rule="evenodd" d="M0 414.5V829H191.5H383V414.5V0H191.5H0V414.5ZM185.729 10.383C187.186 12.235 187.869 15.849 188.79 26.586C189.597 35.984 190.439 40.867 191.422 41.851C192.253 42.682 197.244 43.898 203.164 44.712C218.482 46.819 218.714 49.349 203.849 52.184C198.842 53.139 193.972 54.621 193.026 55.476C190.174 58.057 189 64.125 189 76.284C189 89.074 188.609 91 186.015 91C183.036 91 182.27 88.924 181.038 77.5C179.736 65.422 177.818 58.696 174.692 55.25C173.023 53.409 171.595 53 166.846 53C155.45 53 147.443 46.866 158.009 46.23C163.828 45.879 173.127 43.167 176.038 40.972C178.166 39.366 178.374 38.249 179.056 24.7C179.458 16.699 180.087 9.668 180.453 9.076C181.547 7.306 183.736 7.849 185.729 10.383ZM189.179 124.5C189.567 126.7 189.905 138.4 189.93 150.5C189.955 162.6 190.508 188.7 191.159 208.5C192.103 237.235 192.08 250.251 191.043 273C190.148 292.627 189.83 328.118 190.02 387C190.171 434.025 190.242 481.05 190.176 491.5C190.026 515.405 191.747 568.671 193.043 580.267C193.935 588.242 193.84 589.394 191.991 593.017C189.895 597.127 188.05 597.97 186.153 595.685C184.886 594.157 184.644 550.579 184.511 300C184.463 207.325 184.06 129.852 183.616 127.837C182.515 122.833 183.589 119.8 186.322 120.192C187.965 120.427 188.64 121.445 189.179 124.5ZM192.365 627.073C195.633 629.643 195.872 634.37 193.017 639.967C189.746 646.378 184.704 646.111 181.5 639.358C178.778 633.622 180.403 627.991 185.357 625.992C188.603 624.682 189.502 624.82 192.365 627.073ZM105.446 651.94C107.037 653.698 107.085 654.564 105.958 661.19C103.348 676.539 105.093 695.184 109.556 699.647C111.497 701.588 112.946 702 117.832 702C124.866 702 127.137 703.661 123.993 706.507C120.047 710.077 108.665 707.713 103.776 702.307C98.698 696.691 96.123 679.448 97.918 663.08C98.616 656.714 99.397 651.167 99.653 650.753C100.523 649.345 103.684 649.993 105.446 651.94ZM142.321 677.802C143.731 679.361 143.8 680.422 142.829 685.646C140.898 696.028 143.666 701 151.378 701C159.127 701 160.033 706.153 152.53 707.56C146.016 708.782 135.806 700.812 134.42 693.423C133.548 688.776 134.52 679.283 136.057 677.431C137.68 675.476 140.359 675.634 142.321 677.802ZM69.877 678.352C70.635 679.265 70.791 682.643 70.357 688.755C69.732 697.562 69.784 697.875 72.312 700.403C74.529 702.62 75.784 703 80.889 703C84.179 703 88.083 703.461 89.567 704.025C92.118 704.995 92.173 705.151 90.589 706.902C88.349 709.377 82.823 710.155 76.746 708.852C72.929 708.033 70.601 706.658 66.746 702.942L61.722 698.1L62.214 688.692C62.485 683.518 63.024 678.77 63.412 678.142C64.383 676.571 68.51 676.705 69.877 678.352ZM33.528 680.013C40.287 683.286 47 692.903 47 699.315C47 701.225 46.111 703.86 44.984 705.293C42.813 708.053 37.275 710.343 34.03 709.822C32.194 709.527 32.32 709.13 35.537 705.079C40.007 699.45 40.689 696.668 38.648 692.388C36.362 687.595 31.587 684.89 26.008 685.228L21.515 685.5L20.704 690.5C20.258 693.25 20.148 706.134 20.458 719.13C21 741.763 20.943 742.782 19.122 743.258C18.077 743.531 16.739 743.457 16.15 743.093C14.976 742.367 14.331 680.891 15.478 679.036C16.643 677.15 28.994 677.819 33.528 680.013ZM193.651 681.38C196.34 684.507 196.652 687.755 194.532 690.559C193.261 692.239 193.059 692.275 193.032 690.827C193.014 689.906 191.815 687.745 190.367 686.024C188.191 683.439 187.123 682.948 184.216 683.198C179.371 683.614 176.5 687.584 176.5 693.867C176.5 703.104 181.007 705.982 189.901 702.423C197.168 699.515 199.724 703.562 200.686 719.5C201.375 730.906 200.104 735.823 195.401 739.952C192.059 742.887 191.405 743.069 185.165 742.794L178.5 742.5L178.192 739.322L177.884 736.144L184.055 736.322C189.577 736.481 190.426 736.236 192.128 733.991C195.703 729.277 195.881 713.024 192.397 709.54C191.04 708.183 190.554 708.18 187.986 709.507C183.964 711.587 180.847 711.373 176.972 708.75C168.204 702.813 166.324 687.21 173.612 680.853C176.223 678.576 178.56 678.087 185.401 678.389C190.416 678.61 191.654 679.059 193.651 681.38ZM234 680C236.717 682.717 236.635 689.929 233.811 696.742C232.102 700.867 231.836 702.623 232.597 704.762C233.662 707.752 235.16 707.982 244.068 706.525C247.711 705.929 248.976 706.119 250.318 707.46C252.643 709.786 252.437 710.729 249.25 712.332C242.201 715.876 233.225 714.881 227.971 709.973C224.295 706.539 224.094 702.547 227.187 694.462C229.257 689.052 229.281 688.678 227.623 687.466C226.187 686.416 224.869 686.471 220.291 687.773C214.759 689.347 214.694 689.341 212.822 687.029C209.67 683.136 210.876 681.984 220.5 679.697C229.081 677.658 231.717 677.717 234 680ZM268.066 679.035C270.53 680.354 270.497 681.598 267.852 687.062C264.634 693.712 264.334 698.903 266.975 702.25C268.856 704.633 269.854 705 274.466 705C278.579 705 279.936 705.391 280.447 706.724C281.995 710.756 273.12 713.217 267.358 710.353C260.947 707.167 259.489 704.138 259.571 694.169C259.68 681.004 262.467 676.039 268.066 679.035ZM313.316 679.125C314.517 679.744 316.456 681.119 317.624 682.181C319.729 684.094 319.78 684.089 323.513 681.556C327.197 679.055 329.439 678.576 335.495 678.995C344.308 679.604 353 690.455 353 700.846C353 704.965 350.005 712.405 348.822 711.222C348.323 710.723 346.863 706.168 345.578 701.1C343.062 691.179 340.651 687.522 335.947 686.488C333.057 685.854 327.837 687.887 326.313 690.243C325.866 690.934 325.275 695.048 325 699.384C324.577 706.06 324.166 707.489 322.323 708.707C318.775 711.054 316.603 707.876 314.711 697.574C313.828 692.766 312.577 688.195 311.93 687.416C310.275 685.421 306.343 685.657 304.115 687.885C301.284 690.716 298 700.433 298 705.978C298 711.768 297.095 712.669 294.09 709.869C290.621 706.637 289.989 703.822 291.387 697.811C294.649 683.779 305.085 674.886 313.316 679.125ZM158 780.5C158 781.875 158.398 783 158.885 783C159.372 783 160.507 781.875 161.408 780.5C162.309 779.125 163.523 778 164.106 778C164.69 778 164.272 779.228 163.179 780.729C161.193 783.455 161.193 783.463 163.204 786.287C166.121 790.383 164.668 790.769 161.101 786.845L158.059 783.5L158.029 786.75C158.013 788.538 157.55 790 157 790C156.444 790 156 787.333 156 784C156 780.667 156.444 778 157 778C157.55 778 158 779.125 158 780.5ZM171.698 782.747L173.646 787.493L175.459 782.747C176.456 780.136 177.691 778 178.203 778C179.368 778 178.527 780.769 174.937 788.75C172.805 793.488 171.626 795 170.063 795C168.928 795 168 794.55 168 794C168 793.45 168.62 793 169.378 793C172.768 793 173.128 790.347 170.534 784.482C167.679 778.026 167.673 778 168.875 778C169.356 778 170.627 780.136 171.698 782.747ZM185.837 780.111L187.156 782.222L188.635 780.111C189.448 778.95 190.575 778 191.14 778C191.705 778 191.29 779.203 190.219 780.673C188.289 783.324 188.289 783.376 190.235 786.673C192.431 790.395 191.146 791.252 188.622 787.75L187 785.5L185.378 787.75C182.82 791.298 181.607 790.371 183.917 786.634L185.998 783.267L183.926 780.634C182.492 778.81 182.265 778 183.187 778C183.919 778 185.112 778.95 185.837 780.111ZM198 780.5C198 782.681 198.438 783 201.434 783C204.412 783 204.922 782.635 205.284 780.25C205.513 778.737 205.7 780.425 205.7 784C205.7 787.575 205.513 789.263 205.284 787.75C204.922 785.365 204.412 785 201.434 785C198.438 785 198 785.319 198 787.5C198 788.875 197.55 790 197 790C196.444 790 196 787.333 196 784C196 780.667 196.444 778 197 778C197.55 778 198 779.125 198 780.5ZM220 784C220 787.333 219.556 790 219 790C218.45 790 218 788.875 218 787.5C218 784.277 216.673 784.328 214.059 787.653C212.911 789.112 211.689 790.023 211.343 789.677C210.998 789.331 211.242 788.413 211.887 787.636C212.779 786.561 212.782 785.615 211.898 783.676C210.096 779.721 211.331 778 215.969 778H220V784ZM213.38 780.452C212.605 782.473 213.758 784 216.059 784C217.463 784 218 783.308 218 781.5C218 779.654 217.469 779 215.969 779C214.851 779 213.686 779.653 213.38 780.452ZM115 800.879C115 801.362 113.633 802.324 111.962 803.016C110.291 803.708 108.525 805.018 108.039 805.927C107.277 807.351 107.652 807.522 110.746 807.161C113.401 806.851 114.685 807.216 115.669 808.562C119.809 814.223 112.977 821.005 107.829 816.345C105.677 814.398 105.319 807.246 107.25 804.798C107.938 803.927 109.85 802.509 111.5 801.647C115.11 799.762 115 799.786 115 800.879ZM310.998 802.281C311.002 803.88 307.793 804.222 306.348 802.776C305.019 801.447 305.195 801.292 307.923 801.39C309.613 801.45 310.996 801.852 310.998 802.281ZM70.418 805.607C73.324 806.722 72.044 807.881 68.536 807.312C65.541 806.826 64.917 807.089 63.933 809.248C63.071 811.139 63.086 812.293 63.994 813.989C64.987 815.843 65.781 816.135 68.597 815.678C72.057 815.116 73.3 816.287 70.418 817.393C67.332 818.577 65.119 817.966 63.073 815.365C60.48 812.069 60.48 810.931 63.073 807.635C65.119 805.034 67.332 804.423 70.418 805.607ZM83.989 806.487C84.668 807.305 84.95 808.688 84.615 809.56C84.281 810.432 84.455 811.981 85.002 813.003C86.435 815.681 83.622 818.193 79.625 817.804C76.644 817.514 76.486 817.276 76.19 812.627C76.02 809.947 76.118 807.134 76.409 806.377C77.114 804.539 82.437 804.616 83.989 806.487ZM100 807C102.621 809.621 102.541 813.418 99.811 815.961C97.034 818.549 93.564 818.564 91 816C87.039 812.039 89.919 805 95.5 805C96.875 805 98.9 805.9 100 807ZM130.777 806.557C135.611 809.942 132.493 818 126.35 818C124.126 818 120 813.777 120 811.5C120 809.223 124.126 805 126.35 805C127.563 805 129.555 805.701 130.777 806.557ZM147.011 809.25C147.017 811.587 147.228 815.3 147.48 817.5C147.731 819.7 147.693 820.712 147.395 819.75C146.977 818.398 145.749 818 142 818C138.204 818 137.055 818.381 136.728 819.75C136.334 821.396 136.265 821.398 135.559 819.779C135.07 818.658 135.538 817.131 136.904 815.395C138.211 813.733 139 811.275 139 808.865C139 805.022 139.023 805 143 805H147L147.011 809.25ZM154 807.5C154 809.442 154.513 810 156.3 810C158.81 810 161 811.691 161 813.629C161 815.799 157.943 818 154.929 818H152V811.5C152 807.833 152.436 805 153 805C153.55 805 154 806.125 154 807.5ZM165 811.5C165 814.46 164.55 817.16 164 817.5C163.372 817.888 163 815.657 163 811.5C163 807.343 163.372 805.112 164 805.5C164.55 805.84 165 808.54 165 811.5ZM179.179 810L179.5 813.5L182.5 809.271C184.15 806.946 185.838 805.033 186.25 805.021C186.662 805.01 187 807.952 187 811.559C187 815.677 186.628 817.888 186 817.5C185.45 817.16 184.999 815.221 184.997 813.191L184.995 809.5L181.04 814L177.085 818.5L177.043 811.55C176.999 804.415 178.562 803.28 179.179 810ZM208.5 806C208.851 806.567 208.01 807 206.559 807C204.121 807 204 807.262 204 812.559C204 816.01 203.621 817.884 203 817.5C202.45 817.16 202 814.659 202 811.941C202 807.667 201.73 807 200 807C198.9 807 198 806.55 198 806C198 805.45 200.223 805 202.941 805C205.659 805 208.16 805.45 208.5 806ZM215.997 805.77C218.551 804.175 222.73 806.157 223.213 809.193C224.155 815.117 219.225 820.091 215.487 816.989C214.225 815.942 214 816.228 214 818.878C214 820.595 213.55 822 213 822C211.852 822 211.6 806.733 212.729 805.604C213.13 805.203 213.612 805.337 213.8 805.901C214.026 806.577 214.776 806.532 215.997 805.77ZM234.887 805.909C236.646 807.023 237.654 816.478 236.115 817.429C235.502 817.808 235 817.638 235 817.051C235 816.355 234.302 816.419 232.997 817.234C231.513 818.161 230.54 818.2 229.247 817.386C225.195 814.834 227.504 810 232.774 810C234.25 810 235.002 809.521 234.738 808.75C234.502 808.063 232.89 807.504 231.155 807.51C228.057 807.519 227.343 806.99 228.667 805.667C229.608 804.725 233.241 804.866 234.887 805.909ZM251 810.5C251 813.525 251.45 816 252 816C252.55 816 253 816.873 253 817.941C253 819.009 252.55 820.16 252 820.5C251.45 820.84 251 820.416 251 819.559C251 817.158 241.32 817.337 240.689 819.75C240.356 821.027 240.201 820.873 240.116 819.179C240.052 817.902 240.675 816.182 241.5 815.357C242.325 814.532 243 812.164 243 810.095C243 805.49 243.449 805 247.667 805H251V810.5ZM261.92 809.75C263.8 807.138 265.713 805 266.17 805C266.626 805 267 807.925 267 811.5C267 818.89 265.268 820.392 264.805 813.404L264.5 808.808L261.235 813.454C259.44 816.009 257.527 817.826 256.985 817.491C255.839 816.783 255.64 806.699 256.75 805.572C257.163 805.153 257.725 806.991 258 809.655L258.5 814.5L261.92 809.75ZM274 811.059C274 815.882 274.071 816 277 816C279.929 816 280 815.882 280 811.059C280 808.341 280.45 805.84 281 805.5C281.621 805.116 282 806.99 282 810.441C282 813.498 282.45 816 283 816C283.55 816 283.986 817.237 283.968 818.75C283.939 821.25 283.816 821.341 282.608 819.75C281.679 818.526 279.886 818 276.64 818H272V811.441C272 807.323 272.372 805.112 273 805.5C273.55 805.84 274 808.341 274 811.059ZM293 809.789C294.925 807.198 296.837 805.06 297.25 805.039C297.663 805.018 298 807.952 298 811.559C298 815.677 297.628 817.888 297 817.5C296.45 817.16 296 815.044 296 812.797V808.712L292.454 813.356C290.504 815.91 288.704 818 288.454 818C288.204 818 288.071 814.962 288.157 811.25C288.312 804.6 288.323 804.574 288.907 809.5L289.5 814.5L293 809.789ZM305 809.644V814.288L308.562 809.623C310.521 807.057 312.546 805.219 313.062 805.538C314.288 806.296 314.282 816.707 313.056 817.466C312.528 817.792 311.977 815.945 311.806 813.275L311.5 808.5L308.08 813.25C306.2 815.862 304.287 818 303.83 818C303.374 818 303 815.075 303 811.5C303 807.833 303.436 805 304 805C304.55 805 305 807.09 305 809.644ZM78 808.441C78 810.334 79.432 811.155 81.41 810.396C83.946 809.423 83.296 807 80.5 807C78.99 807 78 807.571 78 808.441ZM92.2 808.2C90.657 809.743 90.657 813.257 92.2 814.8C95.005 817.605 100 815.492 100 811.5C100 808.82 98.18 807 95.5 807C94.345 807 92.86 807.54 92.2 808.2ZM122.932 809.126C120.47 813.727 126.167 818.433 129.8 814.8C131.538 813.062 131.287 808.324 129.418 807.607C126.418 806.456 124.067 807.006 122.932 809.126ZM140.411 811.5L139.367 816H142.183C144.855 816 145 815.768 145 811.5C145 807.859 144.662 807 143.227 807C141.948 807 141.164 808.252 140.411 811.5ZM215.2 808.2C214.54 808.86 214 810.345 214 811.5C214 816.096 219.281 817.673 221.124 813.626C223.182 809.11 218.541 804.859 215.2 808.2ZM244.986 809.25C244.979 810.487 244.701 812.513 244.37 813.75C243.857 815.664 244.158 816 246.383 816C248.818 816 249 815.687 249 811.5C249 807.667 248.704 807 247 807C245.597 807 244.996 807.671 244.986 809.25ZM109.427 808.765C105.924 811.164 107.882 816.434 112.056 815.845C113.715 815.611 114.605 814.759 114.827 813.195C115.364 809.407 112.237 806.841 109.427 808.765ZM154.667 811.667C154.3 812.033 154 813.158 154 814.167C154 816.476 157.807 816.666 158.677 814.399C159.497 812.263 156.269 810.064 154.667 811.667ZM231.25 811.769C229.822 812.004 229 812.844 229 814.07C229 816.43 232.194 816.676 234.035 814.458C235.619 812.549 234.292 811.267 231.25 811.769ZM78 814C78 815.737 78.511 816.074 80.75 815.816C82.387 815.628 83.5 814.893 83.5 814C83.5 813.107 82.387 812.372 80.75 812.184C78.511 811.926 78 812.263 78 814Z" fill="black"/>
</svg>
