<svg width="46" height="40" viewBox="0 0 46 40" fill="none" xmlns="http://www.w3.org/2000/svg">
<path d="M27.3689 38.379C23.7899 38.602 20.2099 38.827 16.6309 39.044C16.1389 39.074 15.6259 39.162 15.1569 39.064C11.7919 38.359 8.35192 37.871 5.09793 36.813C1.30293 35.579 -0.562074 32.213 0.148926 28.278C0.848926 24.406 1.86693 20.592 2.74693 16.753C2.99193 15.681 3.31293 14.622 3.47893 13.538C3.94093 10.52 5.53192 8.06196 7.49492 5.88896C8.53292 4.73896 9.97593 3.90096 11.3469 3.11596C14.0179 1.58596 16.7979 0.139965 19.9289 0.0109634C21.9079 -0.0700378 23.9209 0.314964 25.8969 0.625965C31.3839 1.48896 34.8959 4.90096 37.3859 9.63296C37.8539 10.523 38.4809 11.358 39.1629 12.101C41.1919 14.308 42.7429 16.812 43.8249 19.584C44.5119 21.346 45.0589 23.172 45.5369 25.003C46.6299 29.192 43.4179 34.294 39.2599 35.347C37.1809 35.873 35.2119 36.822 33.1519 37.441C31.2749 38.006 29.3419 38.384 27.4339 38.844C27.4119 38.689 27.3909 38.534 27.3689 38.379Z" fill="#3A3434"/>
</svg>
