<svg width="67" height="65" viewBox="0 0 67 65" fill="none" xmlns="http://www.w3.org/2000/svg">
<path d="M44.9742 52.3867C44.8002 52.4467 44.5942 52.4857 44.4222 52.5827C42.3722 53.7407 40.1892 53.9907 37.8932 53.6037C36.9752 53.4487 35.8762 53.0267 35.1652 53.3657C34.4902 53.6887 34.2662 54.8827 33.7522 55.6317C31.6452 58.7057 29.2842 61.5597 25.9442 63.3607C24.8432 63.9537 23.5672 64.3477 22.3272 64.5297C20.3232 64.8237 18.6572 63.5437 18.1852 61.5647C17.5672 58.9797 18.4972 56.7037 19.7792 54.5687C20.8282 52.8217 22.0382 51.1707 23.2082 49.4987C23.5932 48.9497 23.5462 48.5927 22.9712 48.2397C20.0982 46.4787 18.2012 43.9767 17.3132 40.7177C17.2882 40.6267 17.2012 40.5527 17.1302 40.4547C17.0272 40.4777 16.9082 40.4687 16.8412 40.5237C13.6462 43.1447 9.84616 43.8757 5.87116 43.9487C4.89316 43.9667 3.87216 43.7337 2.93416 43.4237C1.01516 42.7887 -0.0148385 41.3547 0.000161541 39.5917C0.0181615 37.6207 1.16616 35.8987 2.95916 35.2337C4.58016 34.6327 6.22416 34.0947 7.84616 33.4967C9.76016 32.7897 11.6732 32.0767 13.5572 31.2947C13.8612 31.1677 14.2152 30.6607 14.2022 30.3447C14.0892 27.6747 14.8562 25.3027 16.3622 23.1177C16.5422 22.8567 16.5012 22.2977 16.3492 21.9787C15.6822 20.5867 14.8532 19.2677 14.2412 17.8537C13.3652 15.8257 12.6892 13.7107 11.8162 11.6807C10.0082 7.47673 12.8242 3.47173 17.3862 3.80773C19.3492 3.95173 20.9782 4.74973 22.3002 6.19073C23.9602 7.99873 25.6352 9.79273 27.2582 11.6337C27.6952 12.1287 28.0222 12.1767 28.6622 11.9917C30.3432 11.5057 32.0772 11.2077 33.7732 10.7707C34.1502 10.6737 34.5972 10.3897 34.7772 10.0617C36.9392 6.13173 40.0662 3.18573 43.8732 0.884727C45.4172 -0.0472717 46.9622 -0.414276 48.5422 0.638725C50.1802 1.72972 50.9372 3.32272 50.6222 5.28572C50.0852 8.63773 48.5092 11.3837 45.7522 13.4447C44.7922 14.1617 43.9052 15.0017 43.0892 15.8827C41.5082 17.5907 39.6472 18.3417 37.3172 17.9727C36.9242 17.9107 36.4542 18.1777 36.0542 18.3647C35.3762 18.6817 34.7312 19.0687 34.0612 19.4027C33.3072 19.7787 32.4582 20.0187 31.7942 20.5107C29.1262 22.4877 27.1302 25.0157 25.8972 28.1177C25.1432 30.0147 25.0082 31.9787 25.0332 34.0107C25.0722 37.1347 26.2852 39.4707 28.7452 41.4397C31.1112 43.3337 33.7882 43.8617 36.6222 44.0597C37.0922 44.0917 37.6152 43.6447 38.0842 43.3687C39.4812 42.5477 40.8992 41.7527 42.2352 40.8387C42.7842 40.4627 43.4182 39.8657 43.5392 39.2727C43.9102 37.4507 44.1452 35.5847 44.2222 33.7277C44.2432 33.2137 43.6292 32.3527 43.1342 32.1957C41.3692 31.6367 39.5152 31.4137 37.8362 32.5027C37.4922 32.7267 37.1722 33.3447 37.2102 33.7457C37.4702 36.4307 36.9202 37.8647 35.1782 38.6757C33.4562 39.4787 31.0532 38.8857 29.4912 37.2727C26.8682 34.5647 26.8432 29.3227 29.5722 26.3167C33.9982 21.4397 39.3882 19.1037 46.0382 20.5227C47.4462 20.8237 48.7952 21.3937 50.1882 21.7807C50.5312 21.8767 51.0192 21.8727 51.3022 21.6947C52.5802 20.8937 53.8572 20.7937 55.2642 21.3307C55.7402 21.5127 56.3542 21.5077 56.8632 21.3987C58.7852 20.9847 60.7062 20.8397 62.6262 21.2977C64.6282 21.7747 66.4592 22.6137 66.8822 24.8787C67.3152 27.1987 66.5552 29.2237 64.4302 30.3597C62.1252 31.5917 59.6712 32.5407 57.3012 33.6557C56.9732 33.8107 56.5032 34.2377 56.5312 34.4907C56.8212 37.1007 56.0372 39.4997 55.1462 41.8687C54.8262 42.7217 54.9592 43.3637 55.4552 44.0817C56.1402 45.0737 56.8042 46.0957 57.3342 47.1747C58.1272 48.7897 58.9412 50.3427 60.1312 51.7457C62.4552 54.4857 61.8812 58.0997 58.9912 59.7997C57.1652 60.8747 55.3112 60.5597 53.5332 59.6737C50.2132 58.0187 47.7472 55.8857 44.9742 52.3867Z" fill="#3A3434"/>
</svg>
