<svg width="110" height="86" viewBox="0 0 110 86" fill="none" xmlns="http://www.w3.org/2000/svg">
<path d="M26.4864 19.6669C26.0954 19.0439 25.7524 18.3829 25.3064 17.8029C22.8184 14.5699 21.1704 11.0389 21.1624 6.8619C21.1544 2.8009 22.7164 1.0119 26.6794 0.232903C29.4034 -0.303097 31.9624 0.138896 34.4874 1.0219C37.5764 2.1019 40.1864 5.9599 40.1904 9.3039C40.1914 9.7449 40.1154 10.1899 40.1464 10.6279C40.4544 15.0659 38.2704 18.0349 34.5294 20.0209C33.6374 20.4939 33.4094 21.0709 33.4084 22.0129C33.4044 24.2799 34.2054 25.9379 36.4364 26.7759C37.4674 27.1639 38.4424 27.6989 39.4454 28.1599C42.2994 29.4709 45.1934 30.7029 47.1284 33.3859C47.5524 33.9739 48.1884 34.4089 49.0264 35.1949C49.7454 32.6969 50.4614 30.5029 50.9534 28.2599C51.0614 27.7689 50.4944 26.9619 50.0224 26.5399C47.5894 24.3629 46.3334 21.5969 45.8904 18.4469C45.3174 14.3829 47.6284 11.1249 51.6204 10.2009C56.3244 9.1119 61.7774 11.1729 64.5254 15.0789C66.6074 18.0379 66.6044 21.6929 64.4584 24.6049C63.1494 26.3819 61.5124 27.8009 59.3954 28.5199C58.4614 28.8369 58.2014 29.3969 57.9714 30.3079C57.3554 32.7429 56.6214 35.1569 55.7664 37.5189C55.1564 39.2069 55.5764 40.2319 56.9924 41.3209C58.8004 42.7139 60.3193 44.4769 62.0373 45.9959C62.4983 46.4029 63.2314 46.7079 63.8374 46.7049C65.6104 46.6949 67.3304 46.3259 68.8974 45.3529C67.1454 41.0479 68.3823 37.4799 71.5443 34.5149C74.4293 31.8099 80.0994 31.6399 83.1474 33.9829C86.9064 36.8729 87.1864 42.5589 83.7174 45.8719C82.0634 47.4519 80.0914 48.3349 77.8024 48.5809C77.1404 48.6509 76.3664 48.8549 75.8894 49.2759C73.8934 51.0399 71.5984 52.2119 69.0984 53.0409C68.8164 53.1349 68.5494 53.2749 68.0324 53.4969C68.7474 54.0479 69.3664 54.4399 69.8844 54.9379C72.2984 57.2569 74.7104 59.5779 77.0614 61.9589C77.6674 62.5729 78.2124 62.8519 79.1084 62.8509C81.7534 62.8479 84.4034 63.1419 87.0404 63.0429C88.5944 62.9849 90.1453 62.4609 91.6593 62.0149C92.0143 61.9099 92.4143 61.2919 92.4493 60.8799C92.6703 58.2489 93.8363 56.2649 96.1853 55.0089C96.3023 54.9469 96.4263 54.8849 96.5183 54.7929C97.6063 53.7139 98.7374 52.7219 100.441 53.0099C102.746 53.3999 105.009 54.0179 106.529 55.9099C107.623 57.2729 108.482 58.8429 109.313 60.3909C109.94 61.5589 109.706 62.7919 109.108 63.9569C107.317 67.4489 102.329 69.5039 98.5414 68.4469C97.5774 68.1779 96.4074 68.1769 95.4464 68.4509C92.4724 69.3019 89.5614 70.3799 86.4024 70.3209C86.2564 70.3179 86.1074 70.4439 85.6774 70.6349C86.8324 71.3239 87.8144 71.8659 88.7494 72.4779C90.3424 73.5219 90.8724 75.3709 90.0944 76.9999C89.3204 78.6209 87.5603 79.3429 85.7243 78.7829C85.4293 78.6929 85.1093 78.6169 84.8643 78.4439C82.7063 76.9219 80.3484 75.6049 78.4654 73.7939C75.3834 70.8279 72.6423 67.5109 69.6973 64.3989C68.5203 63.1549 67.2204 62.0149 65.9084 60.9099C64.5634 59.7779 63.1343 58.7469 61.5863 57.5519C61.5103 59.2289 61.4334 60.8189 61.3654 62.4099C61.2754 64.5259 61.0804 66.6459 61.1394 68.7589C61.1944 70.7699 61.3484 72.8109 61.7694 74.7719C62.2384 76.9569 62.3184 79.0439 61.5834 81.1619C60.6804 83.7689 59.1424 84.9649 56.3824 85.0659C53.6904 85.1649 51.0994 84.6549 48.6284 83.5949C44.2924 81.7349 41.2744 75.3519 46.5314 70.7759C48.4564 69.0989 50.5594 67.7709 53.1094 67.2259C53.5114 67.1389 54.1294 66.6329 54.1294 66.3209C54.1254 62.9759 54.0634 59.6289 53.9254 56.2869C53.7964 53.1839 51.7614 51.3049 49.4334 49.6559C49.2534 49.5289 49.0054 49.4519 48.8914 49.2829C47.8014 47.6779 46.7134 48.1529 45.4774 49.1489C44.5554 49.8919 43.5054 50.4889 42.4684 51.0719C40.4504 52.2059 40.1044 54.0779 40.6354 55.9899C42.2194 61.6919 36.2964 66.7649 31.9614 66.6579C29.9124 66.6069 28.1854 65.8969 26.6744 64.5409C24.4874 62.5779 23.1584 60.1529 22.6044 57.2749C22.0384 54.3389 23.3814 51.4469 26.2624 50.3839C28.7284 49.4749 31.3694 49.0399 33.9294 48.3839C34.3854 48.2679 34.9024 48.2019 35.2634 47.9379C37.5384 46.2799 39.7774 44.5739 42.0264 42.8809C42.3604 42.6289 42.6824 42.3599 43.1694 41.9719C40.2064 41.0919 37.4694 40.2819 34.7354 39.4639C34.1884 39.2999 33.5444 39.2399 33.1264 38.9049C31.0494 37.2439 28.6454 37.6219 26.2834 37.6769C25.6104 37.6919 25.3174 38.0209 25.4364 38.6949C26.3164 43.6849 19.9264 47.3939 15.6954 46.3659C14.5434 46.0849 13.4094 45.6869 12.3144 45.2289C9.03835 43.8589 7.58535 41.2319 7.49935 37.8079C7.41535 34.4649 9.17435 32.2749 12.0724 30.8169C15.6484 29.0169 19.2214 28.2379 22.9114 30.4919C23.1624 30.6449 23.5044 30.7479 23.7934 30.7279C25.4144 30.6149 27.0314 30.4579 29.0824 30.2779C27.3854 28.8389 25.9134 27.7289 24.1684 27.0109C22.9834 26.5239 21.7854 26.0669 20.5794 25.6349C18.2694 24.8079 16.3314 23.4199 14.8054 21.5419C12.8524 19.1369 10.2534 17.8349 7.44735 16.7929C5.99935 16.2549 4.55835 15.6899 3.15535 15.0459C2.44335 14.7199 1.75835 14.2659 1.17535 13.7419C-0.105649 12.5889 -0.345647 10.8139 0.485353 9.3929C1.34235 7.9269 3.10535 7.2059 4.73535 7.8899C8.11035 9.3059 11.5214 10.6799 14.7444 12.3969C16.5664 13.3679 18.2134 14.8259 19.6344 16.3479C21.4434 18.2869 23.6164 19.3149 26.0424 20.0049C26.1904 19.8919 26.3384 19.7799 26.4864 19.6669Z" fill="#3A3434"/>
</svg>
