<svg width="41" height="41" viewBox="0 0 41 41" fill="none" xmlns="http://www.w3.org/2000/svg">
<path d="M25.1737 21.281C25.1737 20.929 25.2557 20.595 25.1487 20.342C25.0577 20.129 24.7267 19.856 24.5347 19.88C24.0477 19.94 23.5577 20.103 23.1087 20.312C22.1447 20.76 22.0817 21.4 22.9017 22.021C22.9807 22.082 23.0497 22.166 23.1387 22.203C23.6827 22.426 24.2307 22.638 24.7777 22.854C24.9097 22.337 25.0407 21.82 25.1717 21.303C25.1777 21.279 25.1757 21.253 25.1737 21.281ZM33.3387 14.474C31.7047 15.961 30.2077 17.324 28.7107 18.687C28.7537 18.747 28.7967 18.808 28.8407 18.869C30.7977 18.72 32.4437 20.487 34.6647 19.706C34.2367 18.018 33.8087 16.329 33.3387 14.474ZM31.7637 29.302C32.6027 27.761 33.8577 26.34 34.4137 24.396C32.6977 24.273 31.1067 24.256 29.5507 24.018C28.3327 23.831 27.7187 24.337 27.3227 25.323C28.7717 26.621 30.2157 27.915 31.7637 29.302ZM11.3907 33.475C12.8447 34.09 14.1537 34.644 15.5307 35.226C17.4597 32.916 18.2327 30.062 18.9427 27.052C18.3497 27.41 17.8857 27.766 17.3647 27.989C16.2827 28.452 15.5317 29.244 14.8077 30.141C14.0727 31.05 13.1907 31.841 12.3587 32.669C12.0977 32.93 11.7907 33.145 11.3907 33.475ZM21.2347 35.125C21.3667 35.207 21.4067 35.252 21.4507 35.256C23.2697 35.444 24.9847 34.925 26.7067 34.465C26.8117 34.437 26.9697 34.314 26.9697 34.235C26.9677 33.604 27.0897 32.914 26.8807 32.352C26.2387 30.626 25.3607 29.013 24.0257 27.7C23.8237 27.501 23.5987 27.325 23.3847 27.138C23.2237 27.403 22.9917 27.649 22.9147 27.936C22.4137 29.804 21.9347 31.678 21.4757 33.557C21.3467 34.082 21.3077 34.63 21.2347 35.125ZM24.1157 15.23C24.2157 15.314 24.3537 15.521 24.5207 15.549C24.8797 15.61 25.3287 15.71 25.6047 15.554C26.1637 15.237 26.5737 14.623 27.1497 14.376C29.1347 13.524 30.6217 12.095 32.0177 10.517C32.3467 10.146 32.3517 9.88299 32.0387 9.55699C31.8297 9.33899 31.6117 9.12999 31.4087 8.90699C30.3787 7.77399 28.9197 7.43199 27.6067 6.81099C27.0647 6.55399 26.7067 6.54899 26.5127 7.16499C25.8777 9.17399 25.2437 11.183 24.6277 13.198C24.4367 13.823 24.3057 14.466 24.1157 15.23ZM10.8447 9.42499C10.0427 10.012 9.44975 10.432 8.87275 10.872C8.43575 11.207 7.82275 11.484 7.62675 11.934C6.87175 13.671 6.25175 15.467 5.51075 17.426C6.15175 17.426 6.52275 17.456 6.88775 17.42C8.32675 17.279 9.72875 17.34 11.1487 17.72C12.5407 18.093 13.9707 17.909 15.6107 17.538C15.1247 16.855 14.8197 16.229 14.3397 15.798C13.5377 15.077 13.0997 14.199 12.7037 13.224C12.1897 11.957 11.5067 10.758 10.8447 9.42499ZM5.64875 21.672C5.61575 21.992 5.58075 22.094 5.59975 22.185C6.09575 24.594 6.53875 27.016 7.13475 29.4C7.31575 30.125 7.92075 30.746 8.34275 31.431C10.0027 30.051 11.6597 28.937 12.4937 27.012C12.7227 26.483 13.2877 26.11 13.6237 25.615C14.0877 24.934 14.4817 24.205 14.9057 23.497C14.8477 23.438 14.7907 23.379 14.7337 23.319C11.5577 23.805 8.61075 22.958 5.64875 21.672ZM19.8117 15.189L20.1237 15.181C20.3637 14.603 20.7327 14.043 20.8197 13.443C21.1067 11.452 21.3337 9.44999 21.4987 7.44499C21.5687 6.60299 21.4497 5.74099 21.3587 4.89399C21.3407 4.71999 21.0777 4.45099 20.9057 4.43399C19.0397 4.23899 17.1837 4.27999 15.3897 4.91699C14.6887 5.16499 14.2387 6.45899 14.6107 7.10599C15.4137 8.49999 16.1747 9.92099 17.0437 11.272C17.9077 12.615 18.8847 13.887 19.8117 15.189ZM23.3417 -1.14441e-05C24.8477 0.115989 26.3747 0.115987 27.8547 0.376987C29.6907 0.700987 31.1237 1.87399 32.5207 3.04199C33.3117 3.70299 34.0877 4.38099 34.8727 5.04999C35.0067 5.16399 35.1507 5.26699 35.2827 5.38399C36.2847 6.26999 39.2487 11.249 39.6157 12.565C40.4557 15.576 40.8937 18.628 40.5007 21.748C40.0837 25.054 38.8507 28.002 36.8327 30.703C35.5447 32.428 34.0887 33.973 32.6597 35.557C31.5657 36.769 30.2717 37.718 28.7617 38.355C26.8677 39.154 25.0967 40.304 22.9877 40.504C21.9417 40.603 20.8817 40.676 19.8347 40.623C16.3937 40.45 13.1447 39.501 10.0547 38.001C9.35575 37.662 8.69175 37.246 8.03275 36.831C7.33075 36.39 6.64075 35.926 5.97275 35.436C5.59175 35.156 5.19175 34.854 4.92575 34.475C2.88775 31.568 1.41975 28.374 0.500746 24.96C0.160746 23.696 0.211746 22.325 0.108746 21C0.0487461 20.229 0.0307473 19.455 0.00574734 18.681C-0.00225266 18.432 -0.0102526 18.173 0.0437474 17.932C0.351747 16.559 0.658747 15.184 1.00975 13.821C1.12075 13.391 1.30275 12.948 1.56375 12.592C3.06575 10.544 4.55875 8.48599 6.14275 6.50099C6.96975 5.46399 7.92675 4.51399 8.91975 3.63099C9.44675 3.16199 10.1557 2.87199 10.8197 2.58799C11.6987 2.21299 12.6397 1.98099 13.5067 1.58599C16.1827 0.366987 18.9957 -0.0260123 21.9037 0.0639877C22.3817 0.0779877 22.8607 0.0659866 23.3387 0.0659866C23.3397 0.0439866 23.3407 0.0219886 23.3417 -1.14441e-05Z" fill="#75A0B3"/>
</svg>
