<svg width="55" height="57" viewBox="0 0 55 57" fill="none" xmlns="http://www.w3.org/2000/svg">
<path d="M33.9125 36.7279C33.9125 38.1009 34.0175 39.2959 33.8905 40.4659C33.6295 42.8759 33.4725 45.3359 32.8245 47.6499C32.4365 49.0359 31.4285 50.4569 30.3065 51.3899C26.0355 54.9399 20.9045 56.1529 15.4705 56.1019C12.4565 56.0739 10.9605 54.0729 9.83053 51.7329C9.17253 50.3719 9.93354 48.6339 11.3865 48.1029C12.7755 47.5949 14.2665 47.3589 15.7225 47.0449C16.1475 46.9539 16.6045 47.0199 17.0445 46.9849C22.0785 46.5889 24.7935 43.7449 24.8845 38.6789C24.9095 37.2699 24.7125 35.8589 24.6445 34.4479C24.5755 33.0039 23.8015 32.1269 22.5475 31.4919C20.4295 30.4189 18.1815 30.6439 15.9305 30.5839C12.5075 30.4939 10.6105 32.1999 9.74854 35.3589C9.53954 36.1239 9.25954 36.8759 8.94254 37.6029C7.76154 40.3109 4.86554 40.6099 3.02954 38.2599C2.52754 37.6169 1.82754 37.1279 1.33454 36.4809C0.844536 35.8359 0.224534 35.1119 0.136534 34.3669C-0.452466 29.3859 0.802534 25.1899 5.10853 22.0509C8.62953 19.4839 12.2475 17.5059 16.7305 17.5199C17.0185 17.5209 17.4955 16.9919 17.5655 16.6449C17.9555 14.6999 18.0995 12.6949 18.6045 10.7839C19.5725 7.12186 21.2775 4.05386 25.1355 2.51286C28.7595 1.06486 32.4625 0.246857 36.3295 0.0148582C38.1795 -0.0961418 39.8815 0.41386 41.3065 1.50586C42.0595 2.08386 42.7085 3.01386 43.0135 3.91686C43.6665 5.85286 42.0595 7.78986 40.0365 7.53786C37.3575 7.20386 35.1495 8.24086 33.6345 10.1819C32.2815 11.9139 31.2595 14.0239 30.5725 16.1249C29.6925 18.8139 30.7405 21.2479 32.5985 23.3059C32.8255 23.5579 33.1455 23.8119 33.4625 23.8829C35.7505 24.3919 38.0605 24.8999 40.3965 24.2479C41.8845 23.8329 43.4145 23.4329 44.7685 22.7249C45.7125 22.2309 46.5475 21.3299 47.1425 20.4219C47.7845 19.4419 48.0565 18.2269 48.5515 17.1419C49.2985 15.5059 50.6705 14.7559 52.1435 15.1099C53.5665 15.4529 54.4225 16.6799 54.4355 18.4279C54.4555 21.1669 54.4745 23.8689 53.2085 26.4549C50.8575 31.2569 46.8445 34.0009 42.0795 35.9199C39.5095 36.9549 36.8455 37.0859 33.9125 36.7279Z" fill="#3A3434"/>
</svg>
