<svg width="45" height="44" viewBox="0 0 45 44" fill="none" xmlns="http://www.w3.org/2000/svg">
<path d="M25.2694 12.6393C23.7384 13.1483 22.4684 13.8383 21.1554 13.9313C19.8504 14.0233 18.5024 13.5163 17.1274 13.2633C17.0704 14.3993 17.8044 14.7473 18.4584 15.1643C20.8784 16.7103 21.0194 19.6633 18.7534 21.4413C18.3964 21.7213 17.9984 21.9503 17.4714 22.3013C17.8584 22.3013 18.0654 22.2993 18.2734 22.3013C21.1734 22.3273 22.7434 23.8793 22.7844 26.7603C22.7894 27.1353 22.7294 27.5263 22.8134 27.8833C23.0124 28.7243 23.2794 29.5503 23.5644 30.5383C24.5134 29.5633 24.8524 28.7273 24.5454 27.6703C24.4254 27.2563 24.4024 26.8063 24.3854 26.3703C24.2654 23.2433 26.0204 21.7213 29.0884 22.2293C29.6244 22.3183 30.2074 22.2713 30.7414 22.1553C30.9334 22.1143 31.1184 21.6973 31.1574 21.4303C31.1794 21.2853 30.9204 21.0043 30.7344 20.9383C29.4204 20.4733 28.0874 20.0663 26.7714 19.6073C24.5244 18.8233 23.6634 17.0353 24.4344 14.7693C24.6534 14.1243 24.9304 13.4993 25.2694 12.6393ZM44.4834 20.6873C43.9864 23.3863 43.6954 26.6013 42.7774 29.6253C40.7764 36.2103 36.7424 41.0783 29.8054 42.8413C26.6654 43.6393 23.4774 43.1673 20.3754 42.2303C18.8564 41.7713 17.3134 41.3913 15.7854 40.9583C14.8264 40.6853 13.7804 40.5443 12.9374 40.0593C9.79835 38.2553 6.66735 36.4353 4.22535 33.6453C2.44635 31.6143 2.04835 29.0543 1.18035 26.6583C-0.327648 22.4973 -0.122647 18.2583 0.334353 13.9643C0.781353 9.76834 3.01435 6.59334 6.18635 4.18934C8.73035 2.26134 11.5864 0.628338 14.9674 0.464336C15.4044 0.443336 15.8414 0.419338 16.2794 0.400337C18.2334 0.313335 20.1844 0.571335 22.1514 0.112335C23.2334 -0.139664 24.4564 0.0893364 25.5964 0.246338C27.3604 0.489338 29.1004 0.910336 30.8644 1.15934C34.4734 1.66933 37.1584 3.69434 39.6244 6.20634C43.4794 10.1313 44.1504 15.0803 44.4834 20.6873Z" fill="#3A3434"/>
</svg>
